<svg xmlns="http://www.w3.org/2000/svg" xmlns:xlink="http://www.w3.org/1999/xlink" width="500" zoomAndPan="magnify" viewBox="0 0 375 93.749996" height="125" preserveAspectRatio="xMidYMid meet" version="1.0"><defs><g/><clipPath id="id1"><path d="M 67.765625 14.769531 L 133.589844 14.769531 L 133.589844 72.367188 L 67.765625 72.367188 Z M 67.765625 14.769531 " clip-rule="nonzero"/></clipPath><clipPath id="id2"><path d="M 89 14.769531 L 133.589844 14.769531 L 133.589844 72.367188 L 89 72.367188 Z M 89 14.769531 " clip-rule="nonzero"/></clipPath><clipPath id="id3"><path d="M 61.910156 14.769531 L 127.734375 14.769531 L 127.734375 72.367188 L 61.910156 72.367188 Z M 61.910156 14.769531 " clip-rule="nonzero"/></clipPath><clipPath id="id4"><path d="M 83 14.769531 L 127.734375 14.769531 L 127.734375 72.367188 L 83 72.367188 Z M 83 14.769531 " clip-rule="nonzero"/></clipPath></defs><g clip-path="url(#id1)"><path fill="#545454" d="M 129.144531 22.453125 L 129.144531 18.609375 L 124.769531 18.609375 L 124.769531 14.773438 L 107.257812 14.773438 L 107.257812 18.609375 L 102.875 18.609375 L 102.875 26.289062 L 98.5 26.289062 L 98.5 18.609375 L 94.117188 18.609375 L 94.117188 14.773438 L 76.601562 14.773438 L 76.601562 18.609375 L 72.222656 18.609375 L 72.222656 22.453125 L 67.847656 22.453125 L 67.847656 41.648438 L 72.222656 41.648438 L 72.222656 49.328125 L 76.601562 49.328125 L 76.601562 53.167969 L 80.980469 53.167969 L 80.980469 57.007812 L 85.359375 57.007812 L 85.359375 60.84375 L 89.738281 60.84375 L 89.738281 64.6875 L 94.117188 64.6875 L 94.117188 68.523438 L 98.5 68.523438 L 98.5 72.363281 L 102.875 72.363281 L 102.875 68.523438 L 107.257812 68.523438 L 107.257812 64.6875 L 111.632812 64.6875 L 111.632812 60.84375 L 116.011719 60.84375 L 116.011719 57.007812 L 120.390625 57.007812 L 120.390625 53.167969 L 124.769531 53.167969 L 124.769531 49.328125 L 129.148438 49.328125 L 129.148438 45.488281 L 129.144531 45.488281 L 129.144531 41.648438 L 133.527344 41.648438 L 133.527344 22.453125 L 129.144531 22.453125 " fill-opacity="1" fill-rule="nonzero"/></g><path fill="#545454" d="M 89.738281 26.289062 L 89.738281 22.453125 L 76.601562 22.453125 L 76.601562 37.808594 L 89.738281 37.808594 L 89.738281 33.96875 L 94.117188 33.96875 L 94.117188 26.289062 L 89.738281 26.289062 " fill-opacity="1" fill-rule="nonzero"/><g clip-path="url(#id2)"><path fill="#545454" d="M 129.144531 22.453125 L 129.144531 18.609375 L 124.769531 18.609375 L 124.769531 14.773438 L 120.390625 14.773438 L 120.390625 22.453125 L 124.769531 22.453125 L 124.769531 37.808594 L 120.390625 37.808594 L 120.390625 45.488281 L 116.011719 45.488281 L 116.011719 53.167969 L 107.257812 53.167969 L 107.257812 57.007812 L 102.875 57.007812 L 102.875 60.84375 L 89.738281 60.84375 L 89.738281 64.6875 L 94.117188 64.6875 L 94.117188 68.523438 L 98.5 68.523438 L 98.5 72.363281 L 102.875 72.363281 L 102.875 68.523438 L 107.257812 68.523438 L 107.257812 64.6875 L 111.632812 64.6875 L 111.632812 60.84375 L 116.011719 60.84375 L 116.011719 57.007812 L 120.390625 57.007812 L 120.390625 53.167969 L 124.769531 53.167969 L 124.769531 49.328125 L 129.148438 49.328125 L 129.148438 45.488281 L 129.144531 45.488281 L 129.144531 41.648438 L 133.527344 41.648438 L 133.527344 22.453125 L 129.144531 22.453125 " fill-opacity="1" fill-rule="nonzero"/></g><g fill="#545454" fill-opacity="1"><g transform="translate(15.703908, 69.426936)"><g><path d="M 5.082031 0 L 35.582031 0 L 35.582031 -10.167969 L 25.417969 -10.167969 L 25.417969 -40.667969 L 35.582031 -40.667969 L 35.582031 -50.832031 L 5.082031 -50.832031 L 5.082031 -40.667969 L 15.25 -40.667969 L 15.25 -10.167969 L 5.082031 -10.167969 Z M 5.082031 0 "/></g></g></g><g fill="#545454" fill-opacity="1"><g transform="translate(148.182916, 64.3055)"><g><path d="M 13.710938 -36.558594 L 4.570312 -36.558594 L 4.570312 -27.417969 L 13.710938 -27.417969 Z M 4.570312 0 L 41.128906 0 L 41.128906 -9.140625 L 4.570312 -9.140625 Z M 13.710938 -18.28125 L 41.128906 -18.28125 L 41.128906 -27.417969 L 13.710938 -27.417969 Z M 13.710938 -36.558594 L 50.269531 -36.558594 L 50.269531 -45.699219 L 13.710938 -45.699219 Z M 41.128906 -9.140625 L 50.269531 -9.140625 L 50.269531 -18.28125 L 41.128906 -18.28125 Z M 41.128906 -9.140625 "/></g></g></g><g fill="#545454" fill-opacity="1"><g transform="translate(203.01879, 64.3055)"><g><path d="M 22.851562 0 L 31.988281 0 L 31.988281 -36.558594 L 50.269531 -36.558594 L 50.269531 -45.699219 L 4.570312 -45.699219 L 4.570312 -36.558594 L 22.851562 -36.558594 Z M 22.851562 0 "/></g></g></g><g fill="#545454" fill-opacity="1"><g transform="translate(257.854664, 64.3055)"><g><path d="M 4.570312 0 L 13.710938 0 L 13.710938 -18.28125 L 41.128906 -18.28125 L 41.128906 0 L 50.269531 0 L 50.269531 -45.699219 L 41.128906 -45.699219 L 41.128906 -27.417969 L 13.710938 -27.417969 L 13.710938 -45.699219 L 4.570312 -45.699219 Z M 4.570312 0 "/></g></g></g><g fill="#545454" fill-opacity="1"><g transform="translate(312.690539, 64.3055)"><g><path d="M 4.570312 0 L 50.269531 0 L 50.269531 -9.140625 L 13.710938 -9.140625 L 13.710938 -18.28125 L 41.128906 -18.28125 L 41.128906 -27.417969 L 13.710938 -27.417969 L 13.710938 -36.558594 L 50.269531 -36.558594 L 50.269531 -45.699219 L 4.570312 -45.699219 Z M 4.570312 0 "/></g></g></g><g clip-path="url(#id3)"><path fill="#ffeeb7" d="M 123.289062 22.453125 L 123.289062 18.609375 L 118.914062 18.609375 L 118.914062 14.773438 L 101.402344 14.773438 L 101.402344 18.609375 L 97.019531 18.609375 L 97.019531 26.289062 L 92.644531 26.289062 L 92.644531 18.609375 L 88.261719 18.609375 L 88.261719 14.773438 L 70.746094 14.773438 L 70.746094 18.609375 L 66.367188 18.609375 L 66.367188 22.453125 L 61.992188 22.453125 L 61.992188 41.648438 L 66.367188 41.648438 L 66.367188 49.328125 L 70.746094 49.328125 L 70.746094 53.167969 L 75.125 53.167969 L 75.125 57.007812 L 79.503906 57.007812 L 79.503906 60.84375 L 83.886719 60.84375 L 83.886719 64.6875 L 88.261719 64.6875 L 88.261719 68.523438 L 92.644531 68.523438 L 92.644531 72.363281 L 97.019531 72.363281 L 97.019531 68.523438 L 101.402344 68.523438 L 101.402344 64.6875 L 105.777344 64.6875 L 105.777344 60.84375 L 110.15625 60.84375 L 110.15625 57.007812 L 114.535156 57.007812 L 114.535156 53.167969 L 118.914062 53.167969 L 118.914062 49.328125 L 123.292969 49.328125 L 123.292969 45.488281 L 123.289062 45.488281 L 123.289062 41.648438 L 127.671875 41.648438 L 127.671875 22.453125 L 123.289062 22.453125 " fill-opacity="1" fill-rule="nonzero"/></g><path fill="#f24444" d="M 83.886719 26.289062 L 83.886719 22.453125 L 70.746094 22.453125 L 70.746094 37.808594 L 83.886719 37.808594 L 83.886719 33.96875 L 88.261719 33.96875 L 88.261719 26.289062 L 83.886719 26.289062 " fill-opacity="1" fill-rule="nonzero"/><g clip-path="url(#id4)"><path fill="#a89d79" d="M 123.289062 22.453125 L 123.289062 18.609375 L 118.914062 18.609375 L 118.914062 14.773438 L 114.535156 14.773438 L 114.535156 22.453125 L 118.914062 22.453125 L 118.914062 37.808594 L 114.535156 37.808594 L 114.535156 45.488281 L 110.15625 45.488281 L 110.15625 53.167969 L 101.402344 53.167969 L 101.402344 57.007812 L 97.019531 57.007812 L 97.019531 60.84375 L 83.886719 60.84375 L 83.886719 64.6875 L 88.261719 64.6875 L 88.261719 68.523438 L 92.644531 68.523438 L 92.644531 72.363281 L 97.019531 72.363281 L 97.019531 68.523438 L 101.402344 68.523438 L 101.402344 64.6875 L 105.777344 64.6875 L 105.777344 60.84375 L 110.15625 60.84375 L 110.15625 57.007812 L 114.535156 57.007812 L 114.535156 53.167969 L 118.914062 53.167969 L 118.914062 49.328125 L 123.292969 49.328125 L 123.292969 45.488281 L 123.289062 45.488281 L 123.289062 41.648438 L 127.671875 41.648438 L 127.671875 22.453125 L 123.289062 22.453125 " fill-opacity="1" fill-rule="nonzero"/></g><g fill="#ffeeb7" fill-opacity="1"><g transform="translate(9.849211, 69.975969)"><g><path d="M 5.082031 0 L 35.585938 0 L 35.585938 -10.167969 L 25.417969 -10.167969 L 25.417969 -40.667969 L 35.585938 -40.667969 L 35.585938 -50.835938 L 5.082031 -50.835938 L 5.082031 -40.667969 L 15.25 -40.667969 L 15.25 -10.167969 L 5.082031 -10.167969 Z M 5.082031 0 "/></g></g></g><g fill="#ffeeb7" fill-opacity="1"><g transform="translate(142.339364, 65.193998)"><g><path d="M 13.710938 -36.558594 L 4.570312 -36.558594 L 4.570312 -27.421875 L 13.710938 -27.421875 Z M 4.570312 0 L 41.128906 0 L 41.128906 -9.140625 L 4.570312 -9.140625 Z M 13.710938 -18.28125 L 41.128906 -18.28125 L 41.128906 -27.421875 L 13.710938 -27.421875 Z M 13.710938 -36.558594 L 50.269531 -36.558594 L 50.269531 -45.699219 L 13.710938 -45.699219 Z M 41.128906 -9.140625 L 50.269531 -9.140625 L 50.269531 -18.28125 L 41.128906 -18.28125 Z M 41.128906 -9.140625 "/></g></g></g><g fill="#ffeeb7" fill-opacity="1"><g transform="translate(197.170548, 65.193998)"><g><path d="M 22.851562 0 L 31.988281 0 L 31.988281 -36.558594 L 50.269531 -36.558594 L 50.269531 -45.699219 L 4.570312 -45.699219 L 4.570312 -36.558594 L 22.851562 -36.558594 Z M 22.851562 0 "/></g></g></g><g fill="#ffeeb7" fill-opacity="1"><g transform="translate(252.001732, 65.193998)"><g><path d="M 4.570312 0 L 13.710938 0 L 13.710938 -18.28125 L 41.128906 -18.28125 L 41.128906 0 L 50.269531 0 L 50.269531 -45.699219 L 41.128906 -45.699219 L 41.128906 -27.421875 L 13.710938 -27.421875 L 13.710938 -45.699219 L 4.570312 -45.699219 Z M 4.570312 0 "/></g></g></g><g fill="#ffeeb7" fill-opacity="1"><g transform="translate(306.832916, 65.193998)"><g><path d="M 4.570312 0 L 50.269531 0 L 50.269531 -9.140625 L 13.710938 -9.140625 L 13.710938 -18.28125 L 41.128906 -18.28125 L 41.128906 -27.421875 L 13.710938 -27.421875 L 13.710938 -36.558594 L 50.269531 -36.558594 L 50.269531 -45.699219 L 4.570312 -45.699219 Z M 4.570312 0 "/></g></g></g></svg>