<?xml version="1.0" encoding="utf-8"?>
<!-- Generator: Adobe Illustrator 25.2.1, SVG Export Plug-In . SVG Version: 6.00 Build 0)  -->
<svg version="1.1" id="Camada_1" xmlns="http://www.w3.org/2000/svg" xmlns:xlink="http://www.w3.org/1999/xlink" x="0px" y="0px"
	 viewBox="0 0 1440 320" style="enable-background:new 0 0 1440 320;" xml:space="preserve">
<style type="text/css">
	.st0{fill:#9C2C2C;}
</style>
<path class="st0" d="M0,37.8l8.6,3.1c8.5,3.4,25.4,9.3,42.4,9.4c17.6-0.2,35-6.1,52-15.7c17-9.3,34-22.2,51,0
	c17.4,22,35,78.6,52,97.5c16.9,18.9,34,0,51-15.8c17.3-15.5,34-28.5,52-22c16.7,6.5,34,31.3,51,31.4c17.1-0.2,34-25,51-25.1
	c17.6,0.2,35,25,52,40.9s34,21.8,51,0c17.4-21.8,35-72.6,52-88.1c16.9-15.8,34,3.1,51,28.3c17.3,25,34,56.8,52,75.5
	c16.7,19.1,34,25,51,6.3c17.1-19.1,34-62.7,51-62.9c17.6,0.2,35,43.8,52,40.9c17-2.9,34-53.7,51-66.1c17.4-12.4,35,12.4,52,18.9
	c16.9,6.5,34-6.5,51-18.9c17.3-12.4,34-25.4,52-22c16.7,3.1,34,22,51,28.3c17.1,6.1,34,0.2,51,9.4c17.6,9.6,35,34.4,52,53.5
	c17,18.7,34,31.7,51,25.2c17.4-6.5,35-31.3,52-50.3c16.9-18.7,34-31.7,51-28.3c17.3,3.1,34,22,52,22c16.7,0,34-18.9,42-28.3l9-9.4V0
	h-8.6c-8.5,0-25.4,0-42.4,0c-17.6,0-35,0-52,0s-34,0-51,0c-17.4,0-35,0-52,0c-16.9,0-34,0-51,0c-17.3,0-34,0-52,0c-16.7,0-34,0-51,0
	c-17.1,0-34,0-51,0c-17.6,0-35,0-52,0s-34,0-51,0c-17.4,0-35,0-52,0c-16.9,0-34,0-51,0c-17.3,0-34,0-52,0c-16.7,0-34,0-51,0
	c-17.1,0-34,0-51,0c-17.6,0-35,0-52,0s-34,0-51,0c-17.4,0-35,0-52,0c-16.9,0-34,0-51,0c-17.3,0-34,0-52,0c-16.7,0-34,0-51,0
	c-17.1,0-34,0-51,0c-17.6,0-35,0-52,0s-34,0-51,0c-17.4,0-35,0-52,0c-16.9,0-34,0-51,0C85.7,0,69,0,51,0C34.3,0,17,0,9,0H0V37.8z"/>
</svg>
