<?xml version="1.0" encoding="utf-8"?>
<!-- Generator: Adobe Illustrator 25.2.1, SVG Export Plug-In . SVG Version: 6.00 Build 0)  -->
<svg version="1.1" id="Camada_1" xmlns="http://www.w3.org/2000/svg" xmlns:xlink="http://www.w3.org/1999/xlink" x="0px" y="0px"
	 viewBox="0 0 1440 320" style="enable-background:new 0 0 1440 320;" xml:space="preserve">
<style type="text/css">
	.st0{fill:#E84546;}
</style>
<path class="st0" d="M0,236.2l8.6-2c8.5-2.1,25.4-5.9,42.4,4c17.6,10,35,33.9,52,33.9s34-23.9,51-29.9c17.4-6,35,6,52,8
	c16.9,2.1,34-6.1,51-13.9c17.3-7.9,34-16.1,52-6c16.7,10.1,34,37.8,51,37.9c17.1-0.1,34-27.8,51-25.9c17.6,1.9,35,34,52,35.9
	c17,1.9,34-25.8,51-39.9c17.4-13.9,35-13.9,52-6c16.9,8.1,34,23.8,51,23.9c17.3-0.1,34-15.8,52-9.9c16.7,6.1,34,33.8,51,39.9
	c17.1,5.9,34-9.8,51-23.9c17.6-13.9,35-25.9,52-35.9c17-9.8,34-18.1,51-15.9c17.4,2,35,13.9,52,23.9c16.9,9.8,34,18.1,51,27.9
	c17.3,10,34,21.9,52,16c16.7-6,34-29.9,51-43.9c17.1-14.1,34-17.8,51-10c17.6,7.9,35,28,52,29.9c17,1.9,34-13.8,51-13.9
	c17.4,0.1,35,15.8,52,19.9c16.9,4.1,34-4.1,51-6c17.3-1.9,34,1.9,52,10c16.7,8,34,19.9,42,25.9l9,6V320h-8.6c-8.5,0-25.4,0-42.4,0
	c-17.6,0-35,0-52,0s-34,0-51,0c-17.4,0-35,0-52,0c-16.9,0-34,0-51,0c-17.3,0-34,0-52,0c-16.7,0-34,0-51,0c-17.1,0-34,0-51,0
	c-17.6,0-35,0-52,0s-34,0-51,0c-17.4,0-35,0-52,0c-16.9,0-34,0-51,0c-17.3,0-34,0-52,0c-16.7,0-34,0-51,0c-17.1,0-34,0-51,0
	c-17.6,0-35,0-52,0s-34,0-51,0c-17.4,0-35,0-52,0c-16.9,0-34,0-51,0c-17.3,0-34,0-52,0c-16.7,0-34,0-51,0c-17.1,0-34,0-51,0
	c-17.6,0-35,0-52,0s-34,0-51,0c-17.4,0-35,0-52,0c-16.9,0-34,0-51,0c-17.3,0-34,0-52,0c-16.7,0-34,0-42,0H0V236.2z"/>
</svg>
