<?xml version="1.0" encoding="utf-8"?>
<!-- Generator: Adobe Illustrator 25.2.1, SVG Export Plug-In . SVG Version: 6.00 Build 0)  -->
<svg version="1.1" id="Camada_1" xmlns="http://www.w3.org/2000/svg" xmlns:xlink="http://www.w3.org/1999/xlink" x="0px" y="0px"
	 viewBox="0 0 1440 320" style="enable-background:new 0 0 1440 320;" xml:space="preserve">
<style type="text/css">
	.st0{fill:#5C1A1A;}
</style>
<path class="st0" d="M0,217.2l8.6-5.7c8.5-5.5,25.4-17.3,42.4-28.6c17.6-11.2,35-23,52-22.9c17-0.2,34,11.6,51,40
	c17.4,28.4,35,74.5,52,91.4c16.9,17.3,34,5.5,51-11.5c17.3-17.3,34-39.8,52-57.1c16.7-17,34-28.8,51-31.4c17.1-2.7,34,2.7,51,22.9
	c17.6,20,35,54.3,52,51.4c17-3.1,34-42.7,51-48.6c17.4-5.9,35,23,52,22.9c16.9,0.2,34-28.8,51-28.6c17.3-0.2,34,28.8,52,45.7
	c16.7,17.3,34,22.7,51,8.6c17.1-14.3,34-48.6,51-48.6c17.6,0,35,34.3,52,42.9c17,8.6,34-8.6,51-11.4c17.4-3.1,35,8.7,52,20
	c16.9,11.2,34,23,51,8.6c17.3-14.5,34-54.1,52-60c16.7-5.9,34,23,51,25.7c17.1,2.7,34-19.8,51-14.3c17.6,5.7,35,40,52,37.2
	c17-3.1,34-42.7,51-65.7c17.4-23,35-28.4,52-11.4c16.9,17.3,34,56.9,51,65.7c17.3,8.4,34-14.1,52-20c16.7-5.9,34,5.9,42,11.4l9,5.7
	V320h-8.6c-8.5,0-25.4,0-42.4,0c-17.6,0-35,0-52,0s-34,0-51,0c-17.4,0-35,0-52,0c-16.9,0-34,0-51,0c-17.3,0-34,0-52,0
	c-16.7,0-34,0-51,0c-17.1,0-34,0-51,0c-17.6,0-35,0-52,0s-34,0-51,0c-17.4,0-35,0-52,0c-16.9,0-34,0-51,0c-17.3,0-34,0-52,0
	c-16.7,0-34,0-51,0c-17.1,0-34,0-51,0c-17.6,0-35,0-52,0s-34,0-51,0c-17.4,0-35,0-52,0c-16.9,0-34,0-51,0c-17.3,0-34,0-52,0
	c-16.7,0-34,0-51,0c-17.1,0-34,0-51,0c-17.6,0-35,0-52,0s-34,0-51,0c-17.4,0-35,0-52,0c-16.9,0-34,0-51,0c-17.3,0-34,0-52,0
	c-16.7,0-34,0-42,0H0V217.2z"/>
</svg>
