<?xml version="1.0" encoding="utf-8"?>
<!-- Generator: Adobe Illustrator 25.2.1, SVG Export Plug-In . SVG Version: 6.00 Build 0)  -->
<svg version="1.1" id="Camada_1" xmlns="http://www.w3.org/2000/svg" xmlns:xlink="http://www.w3.org/1999/xlink" x="0px" y="0px"
	 viewBox="0 0 1440 320" style="enable-background:new 0 0 1440 320;" xml:space="preserve">
<style type="text/css">
	.st0{fill:#E84546;}
</style>
<path class="st0" d="M0,114.2l8.6,2.7c8.5,2.9,25.4,8,42.4-5.4c17.6-13.6,35-46.2,52-46.2s34,32.6,51,40.8c17.4,8.2,35-8.2,52-10.9
	c16.9-2.9,34,8.3,51,19c17.3,10.7,34,21.9,52,8.2c16.7-13.8,34-51.5,51-51.6c17.1,0.2,34,37.9,51,35.3c17.6-2.5,35-46.4,52-48.9
	c17-2.5,34,35.2,51,54.4c17.4,19,35,19,52,8.2c16.9-11.1,34-32.5,51-32.6c17.3,0.2,34,21.6,52,13.6c16.7-8.3,34-46,51-54.3
	c17.1-8,34,13.4,51,32.6c17.6,19,35,35.3,52,48.9c17,13.4,34,24.6,51,21.7c17.4-2.7,35-19,52-32.6c16.9-13.4,34-24.6,51-38
	c17.3-13.6,34-29.9,52-21.8c16.7,8.2,34,40.8,51,59.8c17.1,19.2,34,24.3,51,13.6c17.6-10.7,35-38.2,52-40.8c17-2.5,34,18.9,51,19
	c17.4-0.2,35-21.6,52-27.2c16.9-5.6,34,5.6,51,8.2c17.3,2.5,34-2.5,52-13.6c16.7-10.9,34-27.2,42-35.3l9-8.2V0h-8.6
	c-8.5,0-25.4,0-42.4,0c-17.6,0-35,0-52,0s-34,0-51,0c-17.4,0-35,0-52,0c-16.9,0-34,0-51,0c-17.3,0-34,0-52,0c-16.7,0-34,0-51,0
	c-17.1,0-34,0-51,0c-17.6,0-35,0-52,0s-34,0-51,0c-17.4,0-35,0-52,0c-16.9,0-34,0-51,0c-17.3,0-34,0-52,0c-16.7,0-34,0-51,0
	c-17.1,0-34,0-51,0c-17.6,0-35,0-52,0s-34,0-51,0c-17.4,0-35,0-52,0c-16.9,0-34,0-51,0c-17.3,0-34,0-52,0c-16.7,0-34,0-51,0
	c-17.1,0-34,0-51,0c-17.6,0-35,0-52,0s-34,0-51,0c-17.4,0-35,0-52,0c-16.9,0-34,0-51,0C85.7,0,69,0,51,0C34.3,0,17,0,9,0H0V114.2z"
	/>
</svg>
