<?xml version="1.0" encoding="utf-8"?>
<!-- Generator: Adobe Illustrator 25.2.1, SVG Export Plug-In . SVG Version: 6.00 Build 0)  -->
<svg version="1.1" id="Camada_1" xmlns="http://www.w3.org/2000/svg" xmlns:xlink="http://www.w3.org/1999/xlink" x="0px" y="0px"
	 viewBox="0 0 1440 320" style="enable-background:new 0 0 1440 320;" xml:space="preserve">
<style type="text/css">
	.st0{fill:#9C2C2C;}
</style>
<path class="st0" d="M0,290.9l8.6-2.4c8.5-2.6,25.4-7.1,42.4-7.3c17.6,0.1,35,4.7,52,12.1c17,7.1,34,17.2,51,0
	c17.4-17,35-60.7,52-75.2c16.9-14.6,34,0,51,12.2c17.3,12,34,22,52,17c16.7-5,34-24.1,51-24.3c17.1,0.1,34,19.3,51,19.4
	c17.6-0.1,35-19.3,52-31.5s34-16.8,51,0c17.4,16.8,35,56,52,68c16.9,12.2,34-2.4,51-21.8c17.3-19.3,34-43.8,52-58.3
	c16.7-14.7,34-19.3,51-4.8c17.1,14.7,34,48.4,51,48.5c17.6-0.1,35-33.8,52-31.5c17,2.3,34,41.4,51,51c17.4,9.6,35-9.6,52-14.6
	c16.9-5,34,5,51,14.6c17.3,9.6,34,19.6,52,17c16.7-2.4,34-17,51-21.8c17.1-4.7,34-0.1,51-7.3c17.6-7.4,35-26.5,52-41.2
	c17-14.4,34-24.4,51-19.4c17.4,5,35,24.1,52,38.8c16.9,14.4,34,24.4,51,21.8c17.3-2.4,34-17,52-17c16.7,0,34,14.6,42,21.8l9,7.3V320
	h-8.6c-8.5,0-25.4,0-42.4,0c-17.6,0-35,0-52,0s-34,0-51,0c-17.4,0-35,0-52,0c-16.9,0-34,0-51,0c-17.3,0-34,0-52,0c-16.7,0-34,0-51,0
	c-17.1,0-34,0-51,0c-17.6,0-35,0-52,0s-34,0-51,0c-17.4,0-35,0-52,0c-16.9,0-34,0-51,0c-17.3,0-34,0-52,0c-16.7,0-34,0-51,0
	c-17.1,0-34,0-51,0c-17.6,0-35,0-52,0s-34,0-51,0c-17.4,0-35,0-52,0c-16.9,0-34,0-51,0c-17.3,0-34,0-52,0c-16.7,0-34,0-51,0
	c-17.1,0-34,0-51,0c-17.6,0-35,0-52,0s-34,0-51,0c-17.4,0-35,0-52,0c-16.9,0-34,0-51,0c-17.3,0-34,0-52,0c-16.7,0-34,0-42,0H0V290.9
	z"/>
</svg>
