<?xml version="1.0" encoding="utf-8"?>
<!-- Generator: Adobe Illustrator 25.2.1, SVG Export Plug-In . SVG Version: 6.00 Build 0)  -->
<svg version="1.1" id="Camada_1" xmlns="http://www.w3.org/2000/svg" xmlns:xlink="http://www.w3.org/1999/xlink" x="0px" y="0px"
	 viewBox="0 0 1440 320" style="enable-background:new 0 0 1440 320;" xml:space="preserve">
<style type="text/css">
	.st0{fill:#5C1A1A;}
</style>
<path class="st0" d="M0,128.6l8.6,7.2c8.5,6.9,25.4,21.6,42.4,35.7c17.6,14.1,35,28.8,52,28.6c17,0.2,34-14.5,51-50
	c17.4-35.5,35-93.1,52-114.3c16.9-21.6,34-6.9,51,14.3c17.3,21.6,34,49.7,52,71.4c16.7,21.2,34,36,51,39.3c17.1,3.3,34-3.3,51-28.6
	c17.6-25,35-67.8,52-64.3c17,3.8,34,53.4,51,60.7c17.4,7.4,35-28.8,52-28.6c16.9-0.2,34,36,51,35.8c17.3,0.2,34-36,52-57.2
	c16.7-21.6,34-28.3,51-10.7c17.1,17.9,34,60.7,51,60.7c17.6,0,35-42.9,52-53.6s34,10.7,51,14.3c17.4,3.8,35-10.9,52-25
	c16.9-14.1,34-28.8,51-10.7c17.3,18.1,34,67.6,52,75c16.7,7.4,34-28.8,51-32.1c17.1-3.3,34,24.8,51,17.9c17.6-7.2,35-50,52-46.5
	c17,3.8,34,53.4,51,82.2c17.4,28.8,35,35.5,52,14.3c16.9-21.6,34-71.2,51-82.1c17.3-10.5,34,17.6,52,25c16.7,7.4,34-7.4,42-14.3
	l9-7.2V0h-8.6c-8.5,0-25.4,0-42.4,0c-17.6,0-35,0-52,0s-34,0-51,0c-17.4,0-35,0-52,0c-16.9,0-34,0-51,0c-17.3,0-34,0-52,0
	c-16.7,0-34,0-51,0c-17.1,0-34,0-51,0c-17.6,0-35,0-52,0s-34,0-51,0c-17.4,0-35,0-52,0c-16.9,0-34,0-51,0c-17.3,0-34,0-52,0
	c-16.7,0-34,0-51,0c-17.1,0-34,0-51,0c-17.6,0-35,0-52,0s-34,0-51,0c-17.4,0-35,0-52,0c-16.9,0-34,0-51,0c-17.3,0-34,0-52,0
	c-16.7,0-34,0-51,0c-17.1,0-34,0-51,0c-17.6,0-35,0-52,0s-34,0-51,0c-17.4,0-35,0-52,0c-16.9,0-34,0-51,0C85.7,0,69,0,51,0
	C34.3,0,17,0,9,0H0V128.6z"/>
</svg>
