<?xml version="1.0" standalone="no"?><svg xmlns="http://www.w3.org/2000/svg" viewBox="0 0 1440 320"><path fill="#5C1A1A" fill-opacity="1" d="M0,128L0,288L36.9,288L36.9,160L73.8,160L73.8,224L110.8,224L110.8,256L147.7,256L147.7,320L184.6,320L184.6,256L221.5,256L221.5,64L258.5,64L258.5,96L295.4,96L295.4,96L332.3,96L332.3,288L369.2,288L369.2,288L406.2,288L406.2,128L443.1,128L443.1,256L480,256L480,0L516.9,0L516.9,192L553.8,192L553.8,128L590.8,128L590.8,32L627.7,32L627.7,96L664.6,96L664.6,256L701.5,256L701.5,96L738.5,96L738.5,64L775.4,64L775.4,224L812.3,224L812.3,32L849.2,32L849.2,288L886.2,288L886.2,256L923.1,256L923.1,288L960,288L960,320L996.9,320L996.9,320L1033.8,320L1033.8,160L1070.8,160L1070.8,0L1107.7,0L1107.7,256L1144.6,256L1144.6,32L1181.5,32L1181.5,256L1218.5,256L1218.5,192L1255.4,192L1255.4,64L1292.3,64L1292.3,192L1329.2,192L1329.2,160L1366.2,160L1366.2,160L1403.1,160L1403.1,288L1440,288L1440,320L1403.1,320L1403.1,320L1366.2,320L1366.2,320L1329.2,320L1329.2,320L1292.3,320L1292.3,320L1255.4,320L1255.4,320L1218.5,320L1218.5,320L1181.5,320L1181.5,320L1144.6,320L1144.6,320L1107.7,320L1107.7,320L1070.8,320L1070.8,320L1033.8,320L1033.8,320L996.9,320L996.9,320L960,320L960,320L923.1,320L923.1,320L886.2,320L886.2,320L849.2,320L849.2,320L812.3,320L812.3,320L775.4,320L775.4,320L738.5,320L738.5,320L701.5,320L701.5,320L664.6,320L664.6,320L627.7,320L627.7,320L590.8,320L590.8,320L553.8,320L553.8,320L516.9,320L516.9,320L480,320L480,320L443.1,320L443.1,320L406.2,320L406.2,320L369.2,320L369.2,320L332.3,320L332.3,320L295.4,320L295.4,320L258.5,320L258.5,320L221.5,320L221.5,320L184.6,320L184.6,320L147.7,320L147.7,320L110.8,320L110.8,320L73.8,320L73.8,320L36.9,320L36.9,320L0,320L0,320Z"></path></svg>