<?xml version="1.0" encoding="utf-8"?>
<!-- Generator: Adobe Illustrator 25.2.1, SVG Export Plug-In . SVG Version: 6.00 Build 0)  -->
<svg version="1.1" id="Camada_1" xmlns="http://www.w3.org/2000/svg" xmlns:xlink="http://www.w3.org/1999/xlink" x="0px" y="0px"
	 viewBox="0 0 1440 320" style="enable-background:new 0 0 1440 320;" xml:space="preserve">
<style type="text/css">
	.st0{fill:#E84546;}
</style>
<path class="st0" d="M0,106l34.3-11.5C68.6,83.2,137,60,206,57.9c68.3-2.2,137,15.9,205,29.8c69,13.6,138,23.1,206,13.8
	c68.7-9.2,137-36.6,206-52.7c68.4-16.2,137-20.5,206-18.4c68.1,2.2,137,11.6,205,18.4c68.9,7,137,11.3,172,13.8l34,2.3V-4h-34.3
	C1371.4-4,1303-4,1234-4c-68.3,0-137,0-205,0c-69,0-138,0-206,0c-68.7,0-137,0-206,0c-68.4,0-137,0-206,0c-68.1,0-137,0-205,0
	C137.1-4,69-4,34-4H0V106z"/>
</svg>
