<svg xmlns="http://www.w3.org/2000/svg" xmlns:xlink="http://www.w3.org/1999/xlink" width="500" zoomAndPan="magnify" viewBox="0 0 375 93.749996" height="125" preserveAspectRatio="xMidYMid meet" version="1.0"><defs><g/><clipPath id="id1"><path d="M 78.933594 9.707031 L 165.195312 9.707031 L 165.195312 85.445312 L 78.933594 85.445312 Z M 78.933594 9.707031 " clip-rule="nonzero"/></clipPath><clipPath id="id2"><path d="M 74.890625 8.234375 L 161.0625 8.234375 L 161.0625 84.113281 L 74.890625 84.113281 Z M 74.890625 8.234375 " clip-rule="nonzero"/></clipPath><clipPath id="id3"><path d="M 117 10 L 161.0625 10 L 161.0625 84.113281 L 117 84.113281 Z M 117 10 " clip-rule="nonzero"/></clipPath></defs><g fill="#545454" fill-opacity="1"><g transform="translate(15.208787, 81.730252)"><g><path d="M -1.710938 1.167969 C -1.4375 1.890625 -0.628906 2.160156 0.628906 2.160156 L 1.347656 2.160156 C 2.96875 2.070312 6.296875 1.4375 11.242188 0.179688 C 13.582031 -0.359375 15.921875 -0.898438 18.351562 -1.617188 C 20.6875 -2.160156 23.027344 -2.878906 25.367188 -3.597656 C 29.59375 -4.855469 33.371094 -6.027344 36.609375 -7.285156 C 39.847656 -8.457031 41.828125 -9.355469 42.726562 -10.074219 C 43.085938 -10.433594 43.355469 -10.703125 43.355469 -10.882812 C 43.355469 -11.0625 43.085938 -11.242188 42.726562 -11.515625 C 42.277344 -11.695312 41.019531 -11.695312 38.859375 -11.695312 C 36.609375 -11.515625 34.269531 -11.332031 31.84375 -11.152344 C 30.132812 -10.972656 28.515625 -10.703125 27.074219 -10.523438 C 25.546875 -10.253906 24.285156 -9.984375 23.386719 -9.804688 C 22.488281 -9.535156 21.679688 -9.355469 20.957031 -9.265625 C 20.238281 -9.175781 19.789062 -9.175781 19.699219 -9.355469 C 19.519531 -9.445312 19.878906 -10.433594 20.6875 -12.414062 C 21.410156 -14.390625 22.488281 -16.640625 23.746094 -19.25 C 24.105469 -20.148438 24.648438 -21.226562 25.277344 -22.578125 C 25.816406 -23.835938 26.445312 -25.1875 27.164062 -26.804688 C 28.425781 -29.59375 29.773438 -32.652344 31.214844 -36.070312 C 32.652344 -39.398438 34 -42.636719 35.261719 -45.695312 C 37.058594 -50.28125 38.769531 -54.332031 40.386719 -57.839844 C 41.828125 -61.257812 42.726562 -63.054688 42.90625 -63.324219 C 43.085938 -63.503906 44.074219 -63.777344 46.054688 -64.136719 C 47.945312 -64.496094 50.101562 -64.765625 52.621094 -65.035156 C 57.300781 -65.574219 60.265625 -66.113281 61.617188 -66.652344 C 62.335938 -66.832031 62.605469 -67.105469 62.605469 -67.464844 C 62.605469 -67.734375 62.246094 -68.09375 61.617188 -68.453125 C 60.085938 -69.261719 57.570312 -69.800781 54.152344 -69.980469 L 51.453125 -69.980469 C 48.84375 -69.980469 46.144531 -69.800781 43.355469 -69.53125 C 41.378906 -69.261719 39.398438 -68.902344 37.507812 -68.542969 C 35.53125 -68.183594 33.820312 -67.734375 32.203125 -67.195312 C 29.324219 -66.113281 27.796875 -65.304688 27.796875 -64.675781 C 27.703125 -64.046875 29.054688 -63.777344 31.933594 -63.777344 C 33.371094 -63.777344 34.542969 -63.683594 35.261719 -63.503906 C 35.980469 -63.324219 36.429688 -63.144531 36.429688 -62.785156 C 36.429688 -62.515625 35.800781 -61.078125 34.542969 -58.46875 C 33.28125 -55.769531 31.753906 -52.710938 30.042969 -49.292969 C 26.625 -42.636719 23.835938 -36.609375 21.679688 -31.125 C 19.429688 -25.546875 17.628906 -20.148438 16.28125 -14.933594 C 15.742188 -13.132812 15.292969 -11.605469 14.753906 -10.164062 C 14.210938 -8.726562 13.761719 -7.914062 13.582031 -7.734375 C 13.3125 -7.464844 12.414062 -7.015625 10.972656 -6.296875 C 9.355469 -5.578125 7.644531 -4.949219 5.847656 -4.226562 C 2.339844 -2.878906 0.0898438 -1.890625 -0.808594 -1.257812 C -1.527344 -0.71875 -1.800781 -0.179688 -1.800781 0.449219 C -1.800781 0.71875 -1.800781 0.988281 -1.710938 1.167969 Z M -1.710938 1.167969 "/></g></g></g><g fill="#f24444" fill-opacity="1"><g transform="translate(12.109575, 80.841569)"><g><path d="M -1.710938 1.167969 C -1.4375 1.890625 -0.628906 2.160156 0.628906 2.160156 L 1.347656 2.160156 C 2.96875 2.070312 6.296875 1.4375 11.242188 0.179688 C 13.582031 -0.359375 15.921875 -0.898438 18.351562 -1.617188 C 20.6875 -2.160156 23.027344 -2.878906 25.367188 -3.597656 C 29.59375 -4.855469 33.371094 -6.027344 36.609375 -7.285156 C 39.847656 -8.457031 41.828125 -9.355469 42.726562 -10.074219 C 43.085938 -10.433594 43.355469 -10.703125 43.355469 -10.882812 C 43.355469 -11.0625 43.085938 -11.242188 42.726562 -11.515625 C 42.277344 -11.695312 41.019531 -11.695312 38.859375 -11.695312 C 36.609375 -11.515625 34.269531 -11.332031 31.84375 -11.152344 C 30.132812 -10.972656 28.515625 -10.703125 27.074219 -10.523438 C 25.546875 -10.253906 24.285156 -9.984375 23.386719 -9.804688 C 22.488281 -9.535156 21.679688 -9.355469 20.957031 -9.265625 C 20.238281 -9.175781 19.789062 -9.175781 19.699219 -9.355469 C 19.519531 -9.445312 19.878906 -10.433594 20.6875 -12.414062 C 21.410156 -14.390625 22.488281 -16.640625 23.746094 -19.25 C 24.105469 -20.148438 24.648438 -21.226562 25.277344 -22.578125 C 25.816406 -23.835938 26.445312 -25.1875 27.164062 -26.804688 C 28.425781 -29.59375 29.773438 -32.652344 31.214844 -36.070312 C 32.652344 -39.398438 34 -42.636719 35.261719 -45.695312 C 37.058594 -50.28125 38.769531 -54.332031 40.386719 -57.839844 C 41.828125 -61.257812 42.726562 -63.054688 42.90625 -63.324219 C 43.085938 -63.503906 44.074219 -63.777344 46.054688 -64.136719 C 47.945312 -64.496094 50.101562 -64.765625 52.621094 -65.035156 C 57.300781 -65.574219 60.265625 -66.113281 61.617188 -66.652344 C 62.335938 -66.832031 62.605469 -67.105469 62.605469 -67.464844 C 62.605469 -67.734375 62.246094 -68.09375 61.617188 -68.453125 C 60.085938 -69.261719 57.570312 -69.800781 54.152344 -69.980469 L 51.453125 -69.980469 C 48.84375 -69.980469 46.144531 -69.800781 43.355469 -69.53125 C 41.378906 -69.261719 39.398438 -68.902344 37.507812 -68.542969 C 35.53125 -68.183594 33.820312 -67.734375 32.203125 -67.195312 C 29.324219 -66.113281 27.796875 -65.304688 27.796875 -64.675781 C 27.703125 -64.046875 29.054688 -63.777344 31.933594 -63.777344 C 33.371094 -63.777344 34.542969 -63.683594 35.261719 -63.503906 C 35.980469 -63.324219 36.429688 -63.144531 36.429688 -62.785156 C 36.429688 -62.515625 35.800781 -61.078125 34.542969 -58.46875 C 33.28125 -55.769531 31.753906 -52.710938 30.042969 -49.292969 C 26.625 -42.636719 23.835938 -36.609375 21.679688 -31.125 C 19.429688 -25.546875 17.628906 -20.148438 16.28125 -14.933594 C 15.742188 -13.132812 15.292969 -11.605469 14.753906 -10.164062 C 14.210938 -8.726562 13.761719 -7.914062 13.582031 -7.734375 C 13.3125 -7.464844 12.414062 -7.015625 10.972656 -6.296875 C 9.355469 -5.578125 7.644531 -4.949219 5.847656 -4.226562 C 2.339844 -2.878906 0.0898438 -1.890625 -0.808594 -1.257812 C -1.527344 -0.71875 -1.800781 -0.179688 -1.800781 0.449219 C -1.800781 0.71875 -1.800781 0.988281 -1.710938 1.167969 Z M -1.710938 1.167969 "/></g></g></g><g fill="#545454" fill-opacity="1"><g transform="translate(63.1429, 81.730252)"><g/></g></g><g fill="#545454" fill-opacity="1"><g transform="translate(87.966223, 81.730252)"><g/></g></g><g fill="#545454" fill-opacity="1"><g transform="translate(112.789547, 81.730252)"><g/></g></g><g fill="#545454" fill-opacity="1"><g transform="translate(137.61287, 81.730252)"><g/></g></g><g fill="#f24444" fill-opacity="1"><g transform="translate(60.043688, 80.841569)"><g/></g></g><g fill="#f24444" fill-opacity="1"><g transform="translate(84.867011, 80.841569)"><g/></g></g><g fill="#f24444" fill-opacity="1"><g transform="translate(109.690335, 80.841569)"><g/></g></g><g fill="#f24444" fill-opacity="1"><g transform="translate(134.513658, 80.841569)"><g/></g></g><g fill="#545454" fill-opacity="1"><g transform="translate(162.422173, 81.730252)"><g><path d="M 11.964844 -0.359375 C 14.121094 0.359375 16.371094 0.628906 18.710938 0.628906 C 22.128906 0.628906 25.816406 0 29.863281 -1.347656 C 36.519531 -3.6875 42.726562 -7.554688 48.484375 -12.953125 C 52.710938 -16.820312 55.320312 -20.417969 56.398438 -23.835938 C 56.757812 -24.917969 56.9375 -25.90625 56.9375 -26.894531 C 56.9375 -28.875 56.128906 -30.582031 54.691406 -32.113281 C 53.070312 -33.730469 50.914062 -34.8125 48.394531 -35.351562 C 45.695312 -35.890625 41.289062 -36.160156 34.992188 -36.160156 C 31.933594 -36.160156 29.144531 -36.25 26.625 -36.429688 C 24.105469 -36.609375 22.667969 -36.789062 22.308594 -36.96875 C 20.507812 -37.871094 20.328125 -39.667969 21.589844 -42.277344 C 22.847656 -44.796875 25.546875 -48.035156 29.683594 -51.902344 C 31.84375 -53.878906 34.179688 -55.859375 36.878906 -57.839844 C 39.398438 -59.636719 41.828125 -61.167969 44.074219 -62.335938 C 45.15625 -62.964844 46.234375 -63.503906 47.132812 -63.867188 C 48.035156 -64.226562 48.84375 -64.40625 49.472656 -64.40625 C 50.460938 -64.40625 50.191406 -63.59375 48.753906 -62.15625 C 47.222656 -60.71875 45.066406 -59.097656 42.367188 -57.390625 C 39.847656 -55.859375 38.320312 -54.601562 37.691406 -53.699219 C 36.96875 -52.800781 37.058594 -52.082031 38.050781 -51.722656 C 38.769531 -51.453125 40.476562 -52.082031 42.996094 -53.519531 C 45.425781 -54.960938 47.855469 -56.667969 50.28125 -58.648438 C 51.902344 -59.90625 53.25 -61.078125 54.421875 -62.335938 C 55.589844 -63.414062 56.308594 -64.40625 56.578125 -65.214844 C 57.027344 -66.652344 56.847656 -67.824219 55.949219 -68.722656 C 55.050781 -69.53125 53.519531 -69.980469 51.542969 -69.980469 C 48.304688 -69.980469 44.347656 -68.632812 39.578125 -66.023438 C 34.8125 -63.414062 30.402344 -60.355469 26.355469 -56.757812 C 24.105469 -54.78125 22.128906 -52.710938 20.417969 -50.734375 C 18.621094 -48.574219 17.269531 -46.59375 16.371094 -44.796875 C 15.023438 -42.1875 14.390625 -40.117188 14.390625 -38.5 C 14.390625 -36.878906 15.023438 -35.351562 16.371094 -33.820312 C 17.808594 -32.113281 19.699219 -31.03125 22.21875 -30.492188 C 24.648438 -29.953125 29.144531 -29.773438 35.710938 -29.773438 C 40.566406 -29.773438 43.804688 -29.683594 45.425781 -29.503906 C 46.953125 -29.324219 48.125 -28.875 48.933594 -28.246094 C 50.011719 -27.34375 50.371094 -26.355469 49.921875 -25.277344 C 49.382812 -24.195312 47.765625 -22.398438 45.066406 -19.96875 C 42.726562 -17.808594 39.667969 -15.832031 36.070312 -14.03125 C 32.472656 -12.144531 28.875 -10.792969 25.367188 -9.894531 C 21.859375 -8.996094 18.171875 -8.636719 14.210938 -8.90625 C 10.164062 -9.085938 7.375 -9.714844 5.757812 -10.972656 C 4.136719 -12.054688 3.148438 -12.683594 2.789062 -12.683594 C 2.429688 -12.683594 2.25 -12.234375 2.25 -11.152344 C 2.25 -8.996094 3.148438 -6.925781 5.128906 -4.765625 C 7.015625 -2.609375 9.265625 -1.078125 11.964844 -0.359375 Z M 11.964844 -0.359375 "/></g></g></g><g fill="#545454" fill-opacity="1"><g transform="translate(221.422536, 81.730252)"><g><path d="M 35.171875 -59.1875 C 37.507812 -62.425781 38.5 -65.484375 38.140625 -68.363281 C 37.78125 -71.0625 36.609375 -72.410156 34.8125 -72.410156 L 34.632812 -72.410156 C 33.910156 -72.410156 33.191406 -72.230469 32.382812 -71.871094 C 31.484375 -71.511719 30.582031 -70.972656 29.683594 -70.25 C 28.785156 -69.621094 27.703125 -68.722656 26.535156 -67.644531 C 25.367188 -66.472656 24.195312 -65.214844 22.9375 -63.777344 C 20.417969 -61.078125 17.992188 -58.019531 15.472656 -54.601562 C 12.863281 -51.183594 10.703125 -47.855469 8.996094 -44.707031 C 8.277344 -43.445312 7.644531 -42.277344 7.105469 -41.378906 L 5.488281 -38.679688 L 1.800781 -38.679688 C -0.539062 -38.769531 -1.710938 -38.140625 -1.800781 -36.789062 L -1.800781 -36.429688 C -1.800781 -35.171875 -1.347656 -34.269531 -0.269531 -33.550781 C -0.0898438 -33.371094 0.449219 -33.28125 1.257812 -33.28125 C 1.980469 -33.28125 2.519531 -33.191406 3.058594 -33.191406 C 3.058594 -32.652344 2.699219 -31.84375 2.160156 -30.582031 C 1.527344 -29.324219 0.898438 -27.796875 0.269531 -26.175781 C -0.179688 -25.097656 -0.539062 -23.835938 -0.808594 -22.578125 C -1.167969 -21.136719 -1.347656 -19.789062 -1.4375 -18.351562 C -1.800781 -15.5625 -1.890625 -12.953125 -1.710938 -10.523438 C -1.617188 -8.003906 -1.257812 -6.386719 -0.628906 -5.667969 C 0.449219 -3.957031 2.070312 -3.148438 4.136719 -3.238281 L 4.855469 -3.238281 C 7.195312 -3.417969 9.894531 -4.40625 12.773438 -6.027344 C 14.753906 -7.105469 16.910156 -8.367188 19.429688 -9.894531 C 21.859375 -11.332031 25.726562 -13.851562 31.03125 -17.449219 C 34.542969 -19.789062 37.78125 -21.589844 40.65625 -23.027344 C 43.535156 -24.464844 45.515625 -25.457031 46.683594 -26.175781 C 46.953125 -26.265625 47.042969 -26.445312 47.042969 -26.625 L 47.042969 -26.714844 C 46.953125 -26.894531 46.683594 -26.984375 46.324219 -27.074219 C 44.796875 -27.164062 42.277344 -26.714844 38.679688 -25.636719 C 35.082031 -24.558594 30.132812 -22.21875 23.925781 -18.621094 C 21.136719 -17 18.800781 -15.742188 16.820312 -14.660156 C 14.84375 -13.582031 13.132812 -12.683594 11.875 -12.054688 C 8.726562 -10.523438 6.925781 -9.984375 6.386719 -10.34375 C 5.847656 -10.703125 5.398438 -11.332031 5.039062 -12.234375 C 4.765625 -12.773438 4.765625 -14.03125 5.039062 -16.011719 C 5.21875 -17.992188 5.667969 -20.058594 6.296875 -22.21875 C 6.566406 -23.386719 6.925781 -24.558594 7.285156 -25.726562 C 7.644531 -26.804688 8.09375 -27.796875 8.546875 -28.695312 C 9.535156 -30.671875 10.253906 -32.203125 10.792969 -33.28125 C 12.414062 -33.550781 14.03125 -33.820312 15.832031 -34 C 17.449219 -34.179688 19.070312 -34.453125 20.597656 -34.722656 C 23.117188 -35.082031 25.1875 -35.441406 26.714844 -35.890625 C 28.15625 -36.25 28.964844 -36.699219 28.964844 -37.148438 C 29.144531 -37.691406 28.246094 -38.140625 26.445312 -38.320312 C 24.558594 -38.5 22.578125 -38.589844 20.507812 -38.589844 C 19.25 -38.679688 17.808594 -38.679688 16.371094 -38.679688 L 12.953125 -38.679688 C 12.953125 -39.128906 13.492188 -39.847656 14.660156 -40.746094 C 15.832031 -41.648438 17.539062 -42.90625 19.878906 -44.4375 C 21.320312 -45.335938 22.9375 -46.683594 24.917969 -48.394531 C 26.894531 -50.011719 28.695312 -51.8125 30.492188 -53.609375 C 31.394531 -54.511719 32.292969 -55.5 33.101562 -56.488281 C 33.910156 -57.390625 34.632812 -58.289062 35.171875 -59.1875 Z M 29.59375 -64.496094 C 30.3125 -65.125 30.941406 -65.664062 31.574219 -66.113281 C 32.023438 -66.472656 32.382812 -66.652344 32.652344 -66.652344 L 32.742188 -66.652344 C 32.742188 -66.652344 32.832031 -66.5625 32.832031 -66.5625 L 32.832031 -66.472656 C 32.832031 -66.382812 32.921875 -66.292969 32.921875 -66.292969 C 32.921875 -65.574219 32.292969 -64.40625 31.125 -62.695312 C 29.773438 -60.71875 27.976562 -58.558594 25.726562 -56.039062 C 23.746094 -53.878906 21.859375 -52.082031 19.878906 -50.460938 C 18.441406 -49.203125 17.449219 -48.664062 17.089844 -48.664062 C 16.910156 -48.664062 16.910156 -48.753906 16.910156 -48.933594 C 16.910156 -49.203125 17.539062 -50.28125 18.980469 -52.171875 C 20.417969 -53.972656 21.949219 -55.859375 23.65625 -57.929688 C 24.738281 -59.1875 25.90625 -60.445312 26.984375 -61.707031 C 28.066406 -62.875 28.875 -63.777344 29.59375 -64.496094 Z M 29.59375 -64.496094 "/></g></g></g><g fill="#545454" fill-opacity="1"><g transform="translate(265.672808, 81.730252)"><g><path d="M 37.871094 -74.210938 C 37.417969 -74.480469 36.96875 -74.660156 36.609375 -74.839844 C 36.25 -74.929688 35.890625 -75.019531 35.53125 -75.019531 L 35.171875 -75.019531 C 34.269531 -74.839844 33.28125 -74.480469 32.203125 -73.941406 C 31.03125 -73.308594 29.683594 -72.410156 28.15625 -71.332031 C 24.917969 -68.902344 21.679688 -65.394531 18.261719 -60.71875 C 14.84375 -56.039062 11.605469 -50.824219 8.546875 -45.066406 C 6.835938 -42.007812 5.21875 -38.859375 3.777344 -35.621094 C 2.25 -32.292969 0.898438 -29.054688 -0.269531 -25.816406 C -2.25 -20.777344 -3.777344 -16.011719 -4.949219 -11.421875 C -6.117188 -6.746094 -6.746094 -2.609375 -6.746094 0.988281 C -6.835938 1.617188 -6.835938 2.160156 -6.835938 2.699219 C -6.835938 4.046875 -6.835938 4.949219 -6.65625 5.398438 C -6.566406 6.117188 -6.296875 6.386719 -5.757812 6.386719 L -5.667969 6.386719 C -5.039062 6.386719 -4.046875 5.488281 -2.789062 3.867188 C -1.527344 2.25 0.898438 -1.167969 4.316406 -6.386719 C 5.21875 -7.734375 6.207031 -9.175781 7.285156 -10.703125 L 10.703125 -15.023438 C 12.773438 -17.628906 14.753906 -19.878906 16.640625 -21.859375 C 18.53125 -23.746094 19.789062 -24.738281 20.328125 -24.828125 C 21.046875 -24.828125 21.5 -24.648438 21.5 -24.105469 C 21.5 -23.566406 21.046875 -21.589844 20.328125 -18.261719 C 19.25 -13.492188 19.339844 -10.074219 20.597656 -7.914062 C 21.769531 -5.757812 24.105469 -4.855469 27.703125 -5.21875 C 31.304688 -5.398438 35.621094 -7.105469 40.746094 -10.253906 C 45.785156 -13.3125 51.632812 -17.628906 58.109375 -23.386719 C 60.445312 -25.367188 61.617188 -26.625 61.617188 -27.074219 C 61.617188 -27.253906 61.4375 -27.253906 61.078125 -27.253906 C 59.816406 -26.984375 56.21875 -25.1875 50.460938 -21.859375 C 49.742188 -21.5 48.304688 -20.507812 46.054688 -19.070312 C 43.714844 -17.628906 41.289062 -16.191406 38.589844 -14.753906 C 35.261719 -12.953125 32.203125 -11.605469 29.324219 -10.703125 C 26.355469 -9.714844 24.738281 -10.164062 24.375 -12.144531 C 24.195312 -12.683594 24.285156 -13.671875 24.464844 -15.023438 C 24.558594 -16.28125 24.828125 -17.628906 25.1875 -19.070312 C 26.265625 -23.117188 26.535156 -26.085938 25.996094 -28.066406 C 25.457031 -29.863281 24.015625 -30.761719 21.859375 -30.582031 C 20.417969 -30.402344 18.621094 -29.503906 16.460938 -27.796875 C 14.300781 -25.996094 11.605469 -23.207031 8.367188 -19.519531 C 5.21875 -15.921875 3.597656 -14.390625 3.417969 -15.113281 C 3.238281 -15.652344 4.40625 -18.980469 6.925781 -24.917969 C 7.285156 -25.816406 7.554688 -26.535156 7.914062 -27.253906 C 8.1875 -27.976562 8.457031 -28.605469 8.816406 -29.144531 C 9.535156 -30.761719 10.34375 -32.023438 11.242188 -32.832031 C 12.054688 -33.640625 13.402344 -34.722656 15.382812 -36.070312 C 17.992188 -37.871094 20.777344 -40.296875 23.746094 -43.355469 C 26.625 -46.414062 29.324219 -49.5625 31.753906 -52.800781 C 33.011719 -54.511719 34.089844 -56.21875 35.082031 -57.929688 C 36.070312 -59.546875 36.878906 -60.988281 37.417969 -62.425781 C 38.769531 -65.84375 39.488281 -68.453125 39.578125 -70.160156 C 39.578125 -71.871094 39.039062 -73.21875 37.871094 -74.210938 Z M 32.472656 -69.621094 C 33.011719 -69.980469 33.371094 -70.34375 33.730469 -70.523438 C 34.089844 -70.703125 34.363281 -70.792969 34.542969 -70.792969 L 34.632812 -70.792969 C 34.8125 -70.792969 34.902344 -70.703125 35.082031 -70.613281 C 35.171875 -70.433594 35.261719 -70.25 35.441406 -69.980469 C 35.53125 -69.621094 35.621094 -69.351562 35.621094 -68.992188 C 35.621094 -68.453125 35.53125 -67.914062 35.351562 -67.285156 C 34.992188 -66.113281 34.453125 -64.765625 33.730469 -63.144531 C 32.292969 -60.265625 30.222656 -56.9375 27.613281 -53.339844 C 24.917969 -49.742188 22.21875 -46.59375 19.429688 -43.894531 C 16.011719 -40.566406 13.941406 -38.949219 13.3125 -38.949219 C 13.132812 -38.949219 13.132812 -38.949219 13.132812 -39.039062 L 13.132812 -39.21875 C 13.132812 -40.117188 14.480469 -43.265625 17.359375 -48.84375 C 19.699219 -53.339844 22.398438 -57.660156 25.277344 -61.707031 C 28.15625 -65.664062 30.492188 -68.363281 32.472656 -69.621094 Z M 32.472656 -69.621094 "/></g></g></g><g fill="#545454" fill-opacity="1"><g transform="translate(324.85305, 81.730252)"><g><path d="M 19.789062 -29.234375 C 21.136719 -30.941406 21.5 -32.472656 20.777344 -33.910156 C 20.058594 -35.171875 18.621094 -35.980469 16.640625 -36.160156 L 15.113281 -36.160156 C 14.570312 -36.070312 14.03125 -35.980469 13.492188 -35.890625 C 10.792969 -35.261719 8.09375 -34 5.578125 -32.023438 C 2.96875 -30.042969 0.898438 -27.796875 -0.628906 -25.457031 C -1.527344 -24.195312 -2.160156 -22.9375 -2.519531 -21.679688 C -2.878906 -20.597656 -3.058594 -19.699219 -3.058594 -18.800781 L -3.058594 -18.171875 C -2.878906 -16.640625 -2.339844 -15.203125 -1.257812 -13.941406 C -0.359375 -12.59375 0.898438 -11.515625 2.519531 -10.792969 C 4.226562 -9.894531 6.746094 -9.355469 9.984375 -9.175781 L 11.0625 -9.175781 C 13.941406 -9.175781 17.179688 -9.625 20.597656 -10.613281 C 22.398438 -11.152344 24.375 -11.785156 26.445312 -12.683594 C 28.425781 -13.582031 30.492188 -14.480469 32.472656 -15.5625 C 36.070312 -17.359375 39.21875 -19.339844 41.917969 -21.410156 C 44.617188 -23.386719 45.964844 -24.828125 46.054688 -25.816406 L 46.054688 -25.996094 C 46.054688 -26.175781 45.964844 -26.445312 45.964844 -26.625 C 45.875 -26.804688 45.785156 -26.984375 45.785156 -26.984375 C 45.605469 -26.984375 44.167969 -26.445312 41.46875 -25.367188 C 38.679688 -24.285156 35.441406 -22.9375 31.753906 -21.226562 C 24.105469 -17.628906 18.171875 -15.5625 13.851562 -15.203125 C 9.535156 -14.753906 6.027344 -15.203125 3.417969 -16.640625 C 2.339844 -17.359375 1.800781 -18.261719 1.710938 -19.339844 C 1.527344 -20.328125 1.890625 -21.589844 2.789062 -23.117188 C 3.148438 -23.835938 3.6875 -24.375 4.40625 -24.738281 C 5.039062 -25.007812 6.117188 -25.1875 7.644531 -25.277344 C 10.34375 -25.457031 12.863281 -25.90625 15.203125 -26.625 C 17.449219 -27.34375 18.980469 -28.15625 19.789062 -29.234375 Z M 11.605469 -31.125 C 12.59375 -31.574219 13.402344 -31.84375 14.121094 -31.933594 C 14.660156 -31.933594 15.023438 -32.023438 15.382812 -32.023438 L 15.652344 -32.023438 C 15.921875 -31.933594 16.101562 -31.84375 16.101562 -31.664062 C 16.101562 -31.484375 16.011719 -31.304688 15.832031 -31.03125 C 15.292969 -30.402344 14.84375 -29.953125 14.300781 -29.683594 C 12.683594 -28.875 11.332031 -28.425781 10.433594 -28.335938 C 9.625 -28.246094 9.085938 -28.246094 8.726562 -28.246094 L 8.457031 -28.246094 C 8.1875 -28.246094 8.09375 -28.335938 8.09375 -28.515625 C 8.09375 -28.695312 8.277344 -28.875 8.726562 -29.234375 C 9.445312 -29.863281 10.433594 -30.492188 11.605469 -31.125 Z M 11.605469 -31.125 "/></g></g></g><g fill="#f24444" fill-opacity="1"><g transform="translate(159.322961, 80.841569)"><g><path d="M 11.964844 -0.359375 C 14.121094 0.359375 16.371094 0.628906 18.710938 0.628906 C 22.128906 0.628906 25.816406 0 29.863281 -1.347656 C 36.519531 -3.6875 42.726562 -7.554688 48.484375 -12.953125 C 52.710938 -16.820312 55.320312 -20.417969 56.398438 -23.835938 C 56.757812 -24.917969 56.9375 -25.90625 56.9375 -26.894531 C 56.9375 -28.875 56.128906 -30.582031 54.691406 -32.113281 C 53.070312 -33.730469 50.914062 -34.8125 48.394531 -35.351562 C 45.695312 -35.890625 41.289062 -36.160156 34.992188 -36.160156 C 31.933594 -36.160156 29.144531 -36.25 26.625 -36.429688 C 24.105469 -36.609375 22.667969 -36.789062 22.308594 -36.96875 C 20.507812 -37.871094 20.328125 -39.667969 21.589844 -42.277344 C 22.847656 -44.796875 25.546875 -48.035156 29.683594 -51.902344 C 31.84375 -53.878906 34.179688 -55.859375 36.878906 -57.839844 C 39.398438 -59.636719 41.828125 -61.167969 44.074219 -62.335938 C 45.15625 -62.964844 46.234375 -63.503906 47.132812 -63.867188 C 48.035156 -64.226562 48.84375 -64.40625 49.472656 -64.40625 C 50.460938 -64.40625 50.191406 -63.59375 48.753906 -62.15625 C 47.222656 -60.71875 45.066406 -59.097656 42.367188 -57.390625 C 39.847656 -55.859375 38.320312 -54.601562 37.691406 -53.699219 C 36.96875 -52.800781 37.058594 -52.082031 38.050781 -51.722656 C 38.769531 -51.453125 40.476562 -52.082031 42.996094 -53.519531 C 45.425781 -54.960938 47.855469 -56.667969 50.28125 -58.648438 C 51.902344 -59.90625 53.25 -61.078125 54.421875 -62.335938 C 55.589844 -63.414062 56.308594 -64.40625 56.578125 -65.214844 C 57.027344 -66.652344 56.847656 -67.824219 55.949219 -68.722656 C 55.050781 -69.53125 53.519531 -69.980469 51.542969 -69.980469 C 48.304688 -69.980469 44.347656 -68.632812 39.578125 -66.023438 C 34.8125 -63.414062 30.402344 -60.355469 26.355469 -56.757812 C 24.105469 -54.78125 22.128906 -52.710938 20.417969 -50.734375 C 18.621094 -48.574219 17.269531 -46.59375 16.371094 -44.796875 C 15.023438 -42.1875 14.390625 -40.117188 14.390625 -38.5 C 14.390625 -36.878906 15.023438 -35.351562 16.371094 -33.820312 C 17.808594 -32.113281 19.699219 -31.03125 22.21875 -30.492188 C 24.648438 -29.953125 29.144531 -29.773438 35.710938 -29.773438 C 40.566406 -29.773438 43.804688 -29.683594 45.425781 -29.503906 C 46.953125 -29.324219 48.125 -28.875 48.933594 -28.246094 C 50.011719 -27.34375 50.371094 -26.355469 49.921875 -25.277344 C 49.382812 -24.195312 47.765625 -22.398438 45.066406 -19.96875 C 42.726562 -17.808594 39.667969 -15.832031 36.070312 -14.03125 C 32.472656 -12.144531 28.875 -10.792969 25.367188 -9.894531 C 21.859375 -8.996094 18.171875 -8.636719 14.210938 -8.90625 C 10.164062 -9.085938 7.375 -9.714844 5.757812 -10.972656 C 4.136719 -12.054688 3.148438 -12.683594 2.789062 -12.683594 C 2.429688 -12.683594 2.25 -12.234375 2.25 -11.152344 C 2.25 -8.996094 3.148438 -6.925781 5.128906 -4.765625 C 7.015625 -2.609375 9.265625 -1.078125 11.964844 -0.359375 Z M 11.964844 -0.359375 "/></g></g></g><g fill="#f24444" fill-opacity="1"><g transform="translate(218.323324, 80.841569)"><g><path d="M 35.171875 -59.1875 C 37.507812 -62.425781 38.5 -65.484375 38.140625 -68.363281 C 37.78125 -71.0625 36.609375 -72.410156 34.8125 -72.410156 L 34.632812 -72.410156 C 33.910156 -72.410156 33.191406 -72.230469 32.382812 -71.871094 C 31.484375 -71.511719 30.582031 -70.972656 29.683594 -70.25 C 28.785156 -69.621094 27.703125 -68.722656 26.535156 -67.644531 C 25.367188 -66.472656 24.195312 -65.214844 22.9375 -63.777344 C 20.417969 -61.078125 17.992188 -58.019531 15.472656 -54.601562 C 12.863281 -51.183594 10.703125 -47.855469 8.996094 -44.707031 C 8.277344 -43.445312 7.644531 -42.277344 7.105469 -41.378906 L 5.488281 -38.679688 L 1.800781 -38.679688 C -0.539062 -38.769531 -1.710938 -38.140625 -1.800781 -36.789062 L -1.800781 -36.429688 C -1.800781 -35.171875 -1.347656 -34.269531 -0.269531 -33.550781 C -0.0898438 -33.371094 0.449219 -33.28125 1.257812 -33.28125 C 1.980469 -33.28125 2.519531 -33.191406 3.058594 -33.191406 C 3.058594 -32.652344 2.699219 -31.84375 2.160156 -30.582031 C 1.527344 -29.324219 0.898438 -27.796875 0.269531 -26.175781 C -0.179688 -25.097656 -0.539062 -23.835938 -0.808594 -22.578125 C -1.167969 -21.136719 -1.347656 -19.789062 -1.4375 -18.351562 C -1.800781 -15.5625 -1.890625 -12.953125 -1.710938 -10.523438 C -1.617188 -8.003906 -1.257812 -6.386719 -0.628906 -5.667969 C 0.449219 -3.957031 2.070312 -3.148438 4.136719 -3.238281 L 4.855469 -3.238281 C 7.195312 -3.417969 9.894531 -4.40625 12.773438 -6.027344 C 14.753906 -7.105469 16.910156 -8.367188 19.429688 -9.894531 C 21.859375 -11.332031 25.726562 -13.851562 31.03125 -17.449219 C 34.542969 -19.789062 37.78125 -21.589844 40.65625 -23.027344 C 43.535156 -24.464844 45.515625 -25.457031 46.683594 -26.175781 C 46.953125 -26.265625 47.042969 -26.445312 47.042969 -26.625 L 47.042969 -26.714844 C 46.953125 -26.894531 46.683594 -26.984375 46.324219 -27.074219 C 44.796875 -27.164062 42.277344 -26.714844 38.679688 -25.636719 C 35.082031 -24.558594 30.132812 -22.21875 23.925781 -18.621094 C 21.136719 -17 18.800781 -15.742188 16.820312 -14.660156 C 14.84375 -13.582031 13.132812 -12.683594 11.875 -12.054688 C 8.726562 -10.523438 6.925781 -9.984375 6.386719 -10.34375 C 5.847656 -10.703125 5.398438 -11.332031 5.039062 -12.234375 C 4.765625 -12.773438 4.765625 -14.03125 5.039062 -16.011719 C 5.21875 -17.992188 5.667969 -20.058594 6.296875 -22.21875 C 6.566406 -23.386719 6.925781 -24.558594 7.285156 -25.726562 C 7.644531 -26.804688 8.09375 -27.796875 8.546875 -28.695312 C 9.535156 -30.671875 10.253906 -32.203125 10.792969 -33.28125 C 12.414062 -33.550781 14.03125 -33.820312 15.832031 -34 C 17.449219 -34.179688 19.070312 -34.453125 20.597656 -34.722656 C 23.117188 -35.082031 25.1875 -35.441406 26.714844 -35.890625 C 28.15625 -36.25 28.964844 -36.699219 28.964844 -37.148438 C 29.144531 -37.691406 28.246094 -38.140625 26.445312 -38.320312 C 24.558594 -38.5 22.578125 -38.589844 20.507812 -38.589844 C 19.25 -38.679688 17.808594 -38.679688 16.371094 -38.679688 L 12.953125 -38.679688 C 12.953125 -39.128906 13.492188 -39.847656 14.660156 -40.746094 C 15.832031 -41.648438 17.539062 -42.90625 19.878906 -44.4375 C 21.320312 -45.335938 22.9375 -46.683594 24.917969 -48.394531 C 26.894531 -50.011719 28.695312 -51.8125 30.492188 -53.609375 C 31.394531 -54.511719 32.292969 -55.5 33.101562 -56.488281 C 33.910156 -57.390625 34.632812 -58.289062 35.171875 -59.1875 Z M 29.59375 -64.496094 C 30.3125 -65.125 30.941406 -65.664062 31.574219 -66.113281 C 32.023438 -66.472656 32.382812 -66.652344 32.652344 -66.652344 L 32.742188 -66.652344 C 32.742188 -66.652344 32.832031 -66.5625 32.832031 -66.5625 L 32.832031 -66.472656 C 32.832031 -66.382812 32.921875 -66.292969 32.921875 -66.292969 C 32.921875 -65.574219 32.292969 -64.40625 31.125 -62.695312 C 29.773438 -60.71875 27.976562 -58.558594 25.726562 -56.039062 C 23.746094 -53.878906 21.859375 -52.082031 19.878906 -50.460938 C 18.441406 -49.203125 17.449219 -48.664062 17.089844 -48.664062 C 16.910156 -48.664062 16.910156 -48.753906 16.910156 -48.933594 C 16.910156 -49.203125 17.539062 -50.28125 18.980469 -52.171875 C 20.417969 -53.972656 21.949219 -55.859375 23.65625 -57.929688 C 24.738281 -59.1875 25.90625 -60.445312 26.984375 -61.707031 C 28.066406 -62.875 28.875 -63.777344 29.59375 -64.496094 Z M 29.59375 -64.496094 "/></g></g></g><g fill="#f24444" fill-opacity="1"><g transform="translate(262.573596, 80.841569)"><g><path d="M 37.871094 -74.210938 C 37.417969 -74.480469 36.96875 -74.660156 36.609375 -74.839844 C 36.25 -74.929688 35.890625 -75.019531 35.53125 -75.019531 L 35.171875 -75.019531 C 34.269531 -74.839844 33.28125 -74.480469 32.203125 -73.941406 C 31.03125 -73.308594 29.683594 -72.410156 28.15625 -71.332031 C 24.917969 -68.902344 21.679688 -65.394531 18.261719 -60.71875 C 14.84375 -56.039062 11.605469 -50.824219 8.546875 -45.066406 C 6.835938 -42.007812 5.21875 -38.859375 3.777344 -35.621094 C 2.25 -32.292969 0.898438 -29.054688 -0.269531 -25.816406 C -2.25 -20.777344 -3.777344 -16.011719 -4.949219 -11.421875 C -6.117188 -6.746094 -6.746094 -2.609375 -6.746094 0.988281 C -6.835938 1.617188 -6.835938 2.160156 -6.835938 2.699219 C -6.835938 4.046875 -6.835938 4.949219 -6.65625 5.398438 C -6.566406 6.117188 -6.296875 6.386719 -5.757812 6.386719 L -5.667969 6.386719 C -5.039062 6.386719 -4.046875 5.488281 -2.789062 3.867188 C -1.527344 2.25 0.898438 -1.167969 4.316406 -6.386719 C 5.21875 -7.734375 6.207031 -9.175781 7.285156 -10.703125 L 10.703125 -15.023438 C 12.773438 -17.628906 14.753906 -19.878906 16.640625 -21.859375 C 18.53125 -23.746094 19.789062 -24.738281 20.328125 -24.828125 C 21.046875 -24.828125 21.5 -24.648438 21.5 -24.105469 C 21.5 -23.566406 21.046875 -21.589844 20.328125 -18.261719 C 19.25 -13.492188 19.339844 -10.074219 20.597656 -7.914062 C 21.769531 -5.757812 24.105469 -4.855469 27.703125 -5.21875 C 31.304688 -5.398438 35.621094 -7.105469 40.746094 -10.253906 C 45.785156 -13.3125 51.632812 -17.628906 58.109375 -23.386719 C 60.445312 -25.367188 61.617188 -26.625 61.617188 -27.074219 C 61.617188 -27.253906 61.4375 -27.253906 61.078125 -27.253906 C 59.816406 -26.984375 56.21875 -25.1875 50.460938 -21.859375 C 49.742188 -21.5 48.304688 -20.507812 46.054688 -19.070312 C 43.714844 -17.628906 41.289062 -16.191406 38.589844 -14.753906 C 35.261719 -12.953125 32.203125 -11.605469 29.324219 -10.703125 C 26.355469 -9.714844 24.738281 -10.164062 24.375 -12.144531 C 24.195312 -12.683594 24.285156 -13.671875 24.464844 -15.023438 C 24.558594 -16.28125 24.828125 -17.628906 25.1875 -19.070312 C 26.265625 -23.117188 26.535156 -26.085938 25.996094 -28.066406 C 25.457031 -29.863281 24.015625 -30.761719 21.859375 -30.582031 C 20.417969 -30.402344 18.621094 -29.503906 16.460938 -27.796875 C 14.300781 -25.996094 11.605469 -23.207031 8.367188 -19.519531 C 5.21875 -15.921875 3.597656 -14.390625 3.417969 -15.113281 C 3.238281 -15.652344 4.40625 -18.980469 6.925781 -24.917969 C 7.285156 -25.816406 7.554688 -26.535156 7.914062 -27.253906 C 8.1875 -27.976562 8.457031 -28.605469 8.816406 -29.144531 C 9.535156 -30.761719 10.34375 -32.023438 11.242188 -32.832031 C 12.054688 -33.640625 13.402344 -34.722656 15.382812 -36.070312 C 17.992188 -37.871094 20.777344 -40.296875 23.746094 -43.355469 C 26.625 -46.414062 29.324219 -49.5625 31.753906 -52.800781 C 33.011719 -54.511719 34.089844 -56.21875 35.082031 -57.929688 C 36.070312 -59.546875 36.878906 -60.988281 37.417969 -62.425781 C 38.769531 -65.84375 39.488281 -68.453125 39.578125 -70.160156 C 39.578125 -71.871094 39.039062 -73.21875 37.871094 -74.210938 Z M 32.472656 -69.621094 C 33.011719 -69.980469 33.371094 -70.34375 33.730469 -70.523438 C 34.089844 -70.703125 34.363281 -70.792969 34.542969 -70.792969 L 34.632812 -70.792969 C 34.8125 -70.792969 34.902344 -70.703125 35.082031 -70.613281 C 35.171875 -70.433594 35.261719 -70.25 35.441406 -69.980469 C 35.53125 -69.621094 35.621094 -69.351562 35.621094 -68.992188 C 35.621094 -68.453125 35.53125 -67.914062 35.351562 -67.285156 C 34.992188 -66.113281 34.453125 -64.765625 33.730469 -63.144531 C 32.292969 -60.265625 30.222656 -56.9375 27.613281 -53.339844 C 24.917969 -49.742188 22.21875 -46.59375 19.429688 -43.894531 C 16.011719 -40.566406 13.941406 -38.949219 13.3125 -38.949219 C 13.132812 -38.949219 13.132812 -38.949219 13.132812 -39.039062 L 13.132812 -39.21875 C 13.132812 -40.117188 14.480469 -43.265625 17.359375 -48.84375 C 19.699219 -53.339844 22.398438 -57.660156 25.277344 -61.707031 C 28.15625 -65.664062 30.492188 -68.363281 32.472656 -69.621094 Z M 32.472656 -69.621094 "/></g></g></g><g fill="#f24444" fill-opacity="1"><g transform="translate(321.753838, 80.841569)"><g><path d="M 19.789062 -29.234375 C 21.136719 -30.941406 21.5 -32.472656 20.777344 -33.910156 C 20.058594 -35.171875 18.621094 -35.980469 16.640625 -36.160156 L 15.113281 -36.160156 C 14.570312 -36.070312 14.03125 -35.980469 13.492188 -35.890625 C 10.792969 -35.261719 8.09375 -34 5.578125 -32.023438 C 2.96875 -30.042969 0.898438 -27.796875 -0.628906 -25.457031 C -1.527344 -24.195312 -2.160156 -22.9375 -2.519531 -21.679688 C -2.878906 -20.597656 -3.058594 -19.699219 -3.058594 -18.800781 L -3.058594 -18.171875 C -2.878906 -16.640625 -2.339844 -15.203125 -1.257812 -13.941406 C -0.359375 -12.59375 0.898438 -11.515625 2.519531 -10.792969 C 4.226562 -9.894531 6.746094 -9.355469 9.984375 -9.175781 L 11.0625 -9.175781 C 13.941406 -9.175781 17.179688 -9.625 20.597656 -10.613281 C 22.398438 -11.152344 24.375 -11.785156 26.445312 -12.683594 C 28.425781 -13.582031 30.492188 -14.480469 32.472656 -15.5625 C 36.070312 -17.359375 39.21875 -19.339844 41.917969 -21.410156 C 44.617188 -23.386719 45.964844 -24.828125 46.054688 -25.816406 L 46.054688 -25.996094 C 46.054688 -26.175781 45.964844 -26.445312 45.964844 -26.625 C 45.875 -26.804688 45.785156 -26.984375 45.785156 -26.984375 C 45.605469 -26.984375 44.167969 -26.445312 41.46875 -25.367188 C 38.679688 -24.285156 35.441406 -22.9375 31.753906 -21.226562 C 24.105469 -17.628906 18.171875 -15.5625 13.851562 -15.203125 C 9.535156 -14.753906 6.027344 -15.203125 3.417969 -16.640625 C 2.339844 -17.359375 1.800781 -18.261719 1.710938 -19.339844 C 1.527344 -20.328125 1.890625 -21.589844 2.789062 -23.117188 C 3.148438 -23.835938 3.6875 -24.375 4.40625 -24.738281 C 5.039062 -25.007812 6.117188 -25.1875 7.644531 -25.277344 C 10.34375 -25.457031 12.863281 -25.90625 15.203125 -26.625 C 17.449219 -27.34375 18.980469 -28.15625 19.789062 -29.234375 Z M 11.605469 -31.125 C 12.59375 -31.574219 13.402344 -31.84375 14.121094 -31.933594 C 14.660156 -31.933594 15.023438 -32.023438 15.382812 -32.023438 L 15.652344 -32.023438 C 15.921875 -31.933594 16.101562 -31.84375 16.101562 -31.664062 C 16.101562 -31.484375 16.011719 -31.304688 15.832031 -31.03125 C 15.292969 -30.402344 14.84375 -29.953125 14.300781 -29.683594 C 12.683594 -28.875 11.332031 -28.425781 10.433594 -28.335938 C 9.625 -28.246094 9.085938 -28.246094 8.726562 -28.246094 L 8.457031 -28.246094 C 8.1875 -28.246094 8.09375 -28.335938 8.09375 -28.515625 C 8.09375 -28.695312 8.277344 -28.875 8.726562 -29.234375 C 9.445312 -29.863281 10.433594 -30.492188 11.605469 -31.125 Z M 11.605469 -31.125 "/></g></g></g><g clip-path="url(#id1)"><path fill="#545454" d="M 78.933594 32.054688 C 78.933594 56.109375 122.066406 85.445312 122.066406 85.445312 C 122.066406 85.445312 165.007812 55.902344 165.195312 32.054688 C 165.195312 19.742188 155.171875 9.707031 142.871094 9.707031 C 133.417969 9.707031 125.273438 15.769531 122.066406 24.09375 C 118.855469 15.769531 110.714844 9.707031 101.257812 9.707031 C 88.957031 9.707031 78.933594 19.742188 78.933594 32.054688 " fill-opacity="1" fill-rule="nonzero"/></g><g clip-path="url(#id2)"><path fill="#f24444" d="M 74.890625 30.640625 C 74.890625 54.710938 118.019531 84.113281 118.019531 84.113281 C 118.019531 84.113281 160.894531 54.542969 161.144531 30.640625 C 161.144531 18.3125 151.089844 8.234375 138.875 8.234375 C 129.402344 8.234375 121.257812 14.3125 118.101562 22.644531 C 114.859375 14.3125 106.71875 8.234375 97.328125 8.234375 C 84.945312 8.234375 74.890625 18.3125 74.890625 30.640625 " fill-opacity="1" fill-rule="nonzero"/></g><path fill="#ffeeb7" d="M 103.0625 18.8125 C 100.070312 14.398438 91.511719 11.648438 85.945312 18.0625 C 80.957031 23.726562 84.699219 31.890625 84.699219 31.890625 C 85.445312 30.140625 87.523438 25.976562 92.09375 22.808594 C 96.664062 19.476562 101.148438 18.894531 103.0625 18.8125 Z M 103.0625 18.8125 " fill-opacity="1" fill-rule="nonzero"/><g clip-path="url(#id3)"><path fill="#bf4136" d="M 148.679688 10.648438 C 150.507812 13.648438 152.003906 16.480469 152.503906 19.3125 C 157.902344 49.296875 121.007812 81.199219 117.933594 84.195312 C 124.664062 79.78125 132.394531 73.953125 140.121094 66.121094 C 144.109375 62.125 147.515625 58.125 150.425781 54.378906 C 153.082031 51.378906 164.136719 38.21875 160.394531 24.890625 C 160.0625 23.644531 159.566406 22.308594 158.816406 20.894531 C 157.988281 19.144531 156.492188 16.648438 153.914062 14.230469 C 152.003906 12.480469 150.09375 11.316406 148.679688 10.648438 Z M 148.679688 10.648438 " fill-opacity="1" fill-rule="nonzero"/></g></svg>