<?xml version="1.0" encoding="utf-8"?>
<!-- Generator: Adobe Illustrator 25.2.1, SVG Export Plug-In . SVG Version: 6.00 Build 0)  -->
<svg version="1.1" id="Camada_1" xmlns="http://www.w3.org/2000/svg" xmlns:xlink="http://www.w3.org/1999/xlink" x="0px" y="0px"
	 viewBox="0 0 841.89 200" style="enable-background:new 0 0 841.89 200;" xml:space="preserve">
<style type="text/css">
	.st0{fill:#3C3C3B;stroke:#3C3C3B;stroke-miterlimit:10;}
	.st1{fill:#BF4136;stroke:#BF4136;stroke-miterlimit:10;}
	.st2{fill:#E84546;stroke:#E84645;stroke-miterlimit:10;}
</style>
<rect x="118.58" y="5.91" class="st0" width="25.89" height="27.15"/>
<rect x="145.4" y="5.91" class="st0" width="25.89" height="27.15"/>
<rect x="171.29" y="33.06" class="st0" width="25.89" height="27.15"/>
<rect x="197.19" y="5.91" class="st0" width="25.89" height="27.15"/>
<rect x="223.08" y="5.91" class="st0" width="25.89" height="27.15"/>
<rect x="91.76" y="33.06" class="st0" width="25.89" height="27.15"/>
<rect x="91.76" y="60.22" class="st0" width="25.89" height="27.15"/>
<rect x="91.76" y="87.37" class="st0" width="25.89" height="27.15"/>
<rect x="117.66" y="114.52" class="st0" width="25.89" height="27.15"/>
<rect x="143.55" y="141.67" class="st0" width="25.89" height="27.15"/>
<rect x="171.29" y="168.83" class="st0" width="25.89" height="27.15"/>
<rect x="197.19" y="141.67" class="st0" width="25.89" height="27.15"/>
<rect x="223.08" y="114.52" class="st0" width="25.89" height="27.15"/>
<rect x="248.97" y="87.37" class="st0" width="25.89" height="27.15"/>
<rect x="248.97" y="60.22" class="st0" width="25.89" height="27.15"/>
<rect x="248.97" y="33.06" class="st0" width="25.89" height="27.15"/>
<rect x="11.68" y="2.29" class="st0" width="25.89" height="27.15"/>
<rect x="11.68" y="37.08" class="st0" width="25.89" height="162.92"/>
<rect x="314.91" y="5.91" class="st0" width="25.89" height="27.15"/>
<rect x="340.8" y="5.91" class="st0" width="25.89" height="27.15"/>
<rect x="366.69" y="5.91" class="st0" width="25.89" height="27.15"/>
<rect x="392.58" y="5.91" class="st0" width="25.89" height="27.15"/>
<rect x="314.91" y="33.06" class="st0" width="25.89" height="27.15"/>
<rect x="314.91" y="60.18" class="st0" width="25.89" height="27.15"/>
<rect x="314.91" y="87.37" class="st0" width="25.89" height="27.15"/>
<rect x="340.8" y="87.37" class="st0" width="25.89" height="27.15"/>
<rect x="366.69" y="87.37" class="st0" width="25.89" height="27.15"/>
<rect x="392.58" y="87.37" class="st0" width="25.89" height="27.15"/>
<rect x="392.58" y="114.52" class="st0" width="25.89" height="27.15"/>
<rect x="392.58" y="141.67" class="st0" width="25.89" height="27.15"/>
<rect x="392.58" y="168.83" class="st0" width="25.89" height="27.15"/>
<rect x="366.69" y="168.83" class="st0" width="25.89" height="27.15"/>
<rect x="340.8" y="168.83" class="st0" width="25.89" height="27.15"/>
<rect x="314.91" y="168.83" class="st0" width="25.89" height="27.15"/>
<rect x="497.36" y="33.06" class="st0" width="25.89" height="162.92"/>
<rect x="471.46" y="5.91" class="st0" width="25.89" height="27.15"/>
<rect x="497.36" y="5.91" class="st0" width="25.89" height="27.15"/>
<rect x="523.25" y="5.91" class="st0" width="25.89" height="27.15"/>
<rect x="445.57" y="5.91" class="st0" width="25.89" height="27.15"/>
<rect x="549.14" y="5.91" class="st0" width="25.89" height="27.15"/>
<rect x="600.92" y="5.88" class="st0" width="25.89" height="190.1"/>
<rect x="628.02" y="87.37" class="st0" width="25.89" height="27.15"/>
<rect x="653.91" y="87.37" class="st0" width="25.89" height="27.15"/>
<rect x="679.81" y="5.88" class="st0" width="25.89" height="190.1"/>
<rect x="735.65" y="5.89" class="st0" width="25.89" height="27.15"/>
<rect x="761.55" y="5.89" class="st0" width="25.89" height="27.15"/>
<rect x="787.44" y="5.89" class="st0" width="25.89" height="27.15"/>
<rect x="813.33" y="5.89" class="st0" width="25.89" height="27.15"/>
<rect x="735.65" y="33.05" class="st0" width="25.89" height="27.15"/>
<rect x="735.65" y="60.16" class="st0" width="25.89" height="27.15"/>
<rect x="735.65" y="87.35" class="st0" width="25.89" height="27.15"/>
<rect x="761.55" y="87.35" class="st0" width="25.89" height="27.15"/>
<rect x="787.44" y="87.35" class="st0" width="25.89" height="27.15"/>
<rect x="813.33" y="87.35" class="st0" width="25.89" height="27.15"/>
<rect x="735.65" y="114.5" class="st0" width="25.89" height="27.15"/>
<rect x="735.65" y="141.66" class="st0" width="25.89" height="27.15"/>
<rect x="813.33" y="168.81" class="st0" width="25.89" height="27.15"/>
<rect x="787.44" y="168.81" class="st0" width="25.89" height="27.15"/>
<rect x="761.55" y="168.81" class="st0" width="25.89" height="27.15"/>
<rect x="735.65" y="168.81" class="st0" width="25.89" height="27.15"/>
<rect x="108.76" y="5.71" class="st1" width="25.89" height="27.15"/>
<rect x="135.58" y="5.71" class="st1" width="25.89" height="27.15"/>
<rect x="161.48" y="32.87" class="st1" width="25.89" height="27.15"/>
<rect x="187.37" y="5.71" class="st1" width="25.89" height="27.15"/>
<rect x="213.26" y="5.71" class="st1" width="25.89" height="27.15"/>
<rect x="81.95" y="32.87" class="st1" width="25.89" height="27.15"/>
<rect x="81.95" y="60.02" class="st1" width="25.89" height="27.15"/>
<rect x="81.95" y="87.17" class="st1" width="25.89" height="27.15"/>
<rect x="107.84" y="114.32" class="st1" width="25.89" height="27.15"/>
<rect x="133.73" y="141.48" class="st1" width="25.89" height="27.15"/>
<rect x="161.48" y="168.63" class="st1" width="25.89" height="27.15"/>
<rect x="187.37" y="141.48" class="st1" width="25.89" height="27.15"/>
<rect x="213.26" y="114.32" class="st1" width="25.89" height="27.15"/>
<rect x="239.15" y="87.17" class="st1" width="25.89" height="27.15"/>
<rect x="239.15" y="60.02" class="st1" width="25.89" height="27.15"/>
<rect x="239.15" y="32.87" class="st1" width="25.89" height="27.15"/>
<rect x="1.86" y="2.09" class="st2" width="25.89" height="27.15"/>
<rect x="1.86" y="36.89" class="st2" width="25.89" height="162.92"/>
<rect x="305.09" y="5.71" class="st2" width="25.89" height="27.15"/>
<rect x="330.98" y="5.71" class="st2" width="25.89" height="27.15"/>
<rect x="356.87" y="5.71" class="st2" width="25.89" height="27.15"/>
<rect x="382.76" y="5.71" class="st2" width="25.89" height="27.15"/>
<rect x="305.09" y="32.87" class="st2" width="25.89" height="27.15"/>
<rect x="305.09" y="59.98" class="st2" width="25.89" height="27.15"/>
<rect x="305.09" y="87.17" class="st2" width="25.89" height="27.15"/>
<rect x="330.98" y="87.17" class="st2" width="25.89" height="27.15"/>
<rect x="356.87" y="87.17" class="st2" width="25.89" height="27.15"/>
<rect x="382.76" y="87.17" class="st2" width="25.89" height="27.15"/>
<rect x="382.76" y="114.32" class="st2" width="25.89" height="27.15"/>
<rect x="382.76" y="141.48" class="st2" width="25.89" height="27.15"/>
<rect x="382.76" y="168.63" class="st2" width="25.89" height="27.15"/>
<rect x="356.87" y="168.63" class="st2" width="25.89" height="27.15"/>
<rect x="330.98" y="168.63" class="st2" width="25.89" height="27.15"/>
<rect x="305.09" y="168.63" class="st2" width="25.89" height="27.15"/>
<rect x="487.54" y="32.87" class="st2" width="25.89" height="162.92"/>
<rect x="461.65" y="5.71" class="st2" width="25.89" height="27.15"/>
<rect x="487.54" y="5.71" class="st2" width="25.89" height="27.15"/>
<rect x="513.43" y="5.71" class="st2" width="25.89" height="27.15"/>
<rect x="435.75" y="5.71" class="st2" width="25.89" height="27.15"/>
<rect x="539.32" y="5.71" class="st2" width="25.89" height="27.15"/>
<rect x="591.11" y="5.68" class="st2" width="25.89" height="190.1"/>
<rect x="618.2" y="87.17" class="st2" width="25.89" height="27.15"/>
<rect x="644.1" y="87.17" class="st2" width="25.89" height="27.15"/>
<rect x="669.99" y="5.68" class="st2" width="25.89" height="190.1"/>
<rect x="725.84" y="5.7" class="st2" width="25.89" height="27.15"/>
<rect x="751.73" y="5.7" class="st2" width="25.89" height="27.15"/>
<rect x="777.62" y="5.7" class="st2" width="25.89" height="27.15"/>
<rect x="803.51" y="5.7" class="st2" width="25.89" height="27.15"/>
<rect x="725.84" y="32.85" class="st2" width="25.89" height="27.15"/>
<rect x="725.84" y="59.97" class="st2" width="25.89" height="27.15"/>
<rect x="725.84" y="87.15" class="st2" width="25.89" height="27.15"/>
<rect x="751.73" y="87.15" class="st2" width="25.89" height="27.15"/>
<rect x="777.62" y="87.15" class="st2" width="25.89" height="27.15"/>
<rect x="803.51" y="87.15" class="st2" width="25.89" height="27.15"/>
<rect x="725.84" y="114.31" class="st2" width="25.89" height="27.15"/>
<rect x="725.84" y="141.46" class="st2" width="25.89" height="27.15"/>
<rect x="803.51" y="168.61" class="st2" width="25.89" height="27.15"/>
<rect x="777.62" y="168.61" class="st2" width="25.89" height="27.15"/>
<rect x="751.73" y="168.61" class="st2" width="25.89" height="27.15"/>
<rect x="725.84" y="168.61" class="st2" width="25.89" height="27.15"/>
<rect x="187.37" y="32.87" class="st2" width="25.89" height="27.15"/>
<rect x="213.26" y="32.87" class="st2" width="25.89" height="27.15"/>
<rect x="213.26" y="60.02" class="st2" width="25.89" height="27.15"/>
<rect x="187.37" y="60.02" class="st2" width="25.89" height="27.15"/>
<rect x="213.26" y="87.15" class="st2" width="25.89" height="27.15"/>
<rect x="187.37" y="87.17" class="st2" width="25.89" height="27.15"/>
<rect x="161.48" y="60.02" class="st2" width="25.89" height="27.15"/>
<rect x="160.55" y="87.15" class="st2" width="25.89" height="27.15"/>
<rect x="134.66" y="87.16" class="st2" width="25.89" height="27.15"/>
<rect x="160.55" y="114.3" class="st2" width="25.89" height="27.15"/>
<rect x="134.66" y="114.32" class="st2" width="25.89" height="27.15"/>
<rect x="135.58" y="32.86" class="st2" width="25.89" height="27.15"/>
<rect x="108.76" y="32.88" class="st2" width="25.89" height="27.15"/>
<rect x="135.58" y="59.96" class="st2" width="25.89" height="27.15"/>
<rect x="108.76" y="59.98" class="st2" width="25.89" height="27.15"/>
<rect x="187.37" y="114.3" class="st2" width="25.89" height="27.15"/>
<rect x="160.55" y="141.42" class="st2" width="25.89" height="27.15"/>
<rect x="108.3" y="87.15" class="st2" width="25.89" height="27.15"/>
</svg>
