<svg xmlns="http://www.w3.org/2000/svg" xmlns:xlink="http://www.w3.org/1999/xlink" width="500" zoomAndPan="magnify" viewBox="0 0 375 74.999997" height="100" preserveAspectRatio="xMidYMid meet" version="1.0"><defs><g/><clipPath id="id1"><path d="M 60.199219 8.726562 L 128.449219 8.726562 L 128.449219 68.726562 L 60.199219 68.726562 Z M 60.199219 8.726562 " clip-rule="nonzero"/></clipPath><clipPath id="id2"><path d="M 82 8.726562 L 128.449219 8.726562 L 128.449219 68.726562 L 82 68.726562 Z M 82 8.726562 " clip-rule="nonzero"/></clipPath><clipPath id="id3"><path d="M 54.113281 8.726562 L 122.363281 8.726562 L 122.363281 68.726562 L 54.113281 68.726562 Z M 54.113281 8.726562 " clip-rule="nonzero"/></clipPath><clipPath id="id4"><path d="M 76 8.726562 L 122.363281 8.726562 L 122.363281 68.726562 L 76 68.726562 Z M 76 8.726562 " clip-rule="nonzero"/></clipPath></defs><g clip-path="url(#id1)"><path fill="#545454" d="M 123.847656 16.730469 L 123.847656 12.730469 L 119.308594 12.730469 L 119.308594 8.730469 L 101.144531 8.730469 L 101.144531 12.730469 L 96.601562 12.730469 L 96.601562 20.726562 L 92.0625 20.726562 L 92.0625 12.730469 L 87.519531 12.730469 L 87.519531 8.730469 L 69.355469 8.730469 L 69.355469 12.730469 L 64.8125 12.730469 L 64.8125 16.730469 L 60.273438 16.730469 L 60.273438 36.726562 L 64.8125 36.726562 L 64.8125 44.726562 L 69.355469 44.726562 L 69.355469 48.726562 L 73.894531 48.726562 L 73.894531 52.726562 L 78.4375 52.726562 L 78.4375 56.726562 L 82.980469 56.726562 L 82.980469 60.726562 L 87.519531 60.726562 L 87.519531 64.726562 L 92.0625 64.726562 L 92.0625 68.726562 L 96.601562 68.726562 L 96.601562 64.726562 L 101.144531 64.726562 L 101.144531 60.726562 L 105.683594 60.726562 L 105.683594 56.726562 L 110.226562 56.726562 L 110.226562 52.726562 L 114.765625 52.726562 L 114.765625 48.726562 L 119.308594 48.726562 L 119.308594 44.726562 L 123.847656 44.726562 L 123.847656 36.726562 L 128.390625 36.726562 L 128.390625 16.730469 L 123.847656 16.730469 " fill-opacity="1" fill-rule="nonzero"/></g><path fill="#545454" d="M 82.980469 20.726562 L 82.980469 16.730469 L 69.355469 16.730469 L 69.355469 32.730469 L 82.980469 32.730469 L 82.980469 28.726562 L 87.519531 28.726562 L 87.519531 20.726562 L 82.980469 20.726562 " fill-opacity="1" fill-rule="nonzero"/><g clip-path="url(#id2)"><path fill="#545454" d="M 123.847656 16.730469 L 123.847656 12.730469 L 119.308594 12.730469 L 119.308594 8.730469 L 114.769531 8.730469 L 114.769531 16.730469 L 119.308594 16.730469 L 119.308594 32.730469 L 114.769531 32.730469 L 114.769531 40.730469 L 110.226562 40.730469 L 110.226562 48.726562 L 101.144531 48.726562 L 101.144531 52.726562 L 96.601562 52.726562 L 96.601562 56.726562 L 82.980469 56.726562 L 82.980469 60.726562 L 87.519531 60.726562 L 87.519531 64.726562 L 92.0625 64.726562 L 92.0625 68.726562 L 96.601562 68.726562 L 96.601562 64.726562 L 101.144531 64.726562 L 101.144531 60.726562 L 105.683594 60.726562 L 105.683594 56.726562 L 110.226562 56.726562 L 110.226562 52.726562 L 114.765625 52.726562 L 114.765625 48.726562 L 119.308594 48.726562 L 119.308594 44.726562 L 123.847656 44.726562 L 123.847656 36.726562 L 128.390625 36.726562 L 128.390625 16.730469 L 123.847656 16.730469 " fill-opacity="1" fill-rule="nonzero"/></g><g fill="#545454" fill-opacity="1"><g transform="translate(6.085772, 65.536941)"><g><path d="M 5.285156 0 L 36.984375 0 L 36.984375 -10.566406 L 26.417969 -10.566406 L 26.417969 -42.269531 L 36.984375 -42.269531 L 36.984375 -52.835938 L 5.285156 -52.835938 L 5.285156 -42.269531 L 15.851562 -42.269531 L 15.851562 -10.566406 L 5.285156 -10.566406 Z M 5.285156 0 "/></g></g></g><g fill="#545454" fill-opacity="1"><g transform="translate(143.782331, 60.213802)"><g><path d="M 14.25 -38 L 4.75 -38 L 4.75 -28.5 L 14.25 -28.5 Z M 4.75 0 L 42.75 0 L 42.75 -9.5 L 4.75 -9.5 Z M 14.25 -19 L 42.75 -19 L 42.75 -28.5 L 14.25 -28.5 Z M 14.25 -38 L 52.25 -38 L 52.25 -47.5 L 14.25 -47.5 Z M 42.75 -9.5 L 52.25 -9.5 L 52.25 -19 L 42.75 -19 Z M 42.75 -9.5 "/></g></g></g><g fill="#545454" fill-opacity="1"><g transform="translate(200.777863, 60.213802)"><g><path d="M 23.75 0 L 33.25 0 L 33.25 -38 L 52.25 -38 L 52.25 -47.5 L 4.75 -47.5 L 4.75 -38 L 23.75 -38 Z M 23.75 0 "/></g></g></g><g fill="#545454" fill-opacity="1"><g transform="translate(257.773395, 60.213802)"><g><path d="M 4.75 0 L 14.25 0 L 14.25 -19 L 42.75 -19 L 42.75 0 L 52.25 0 L 52.25 -47.5 L 42.75 -47.5 L 42.75 -28.5 L 14.25 -28.5 L 14.25 -47.5 L 4.75 -47.5 Z M 4.75 0 "/></g></g></g><g fill="#545454" fill-opacity="1"><g transform="translate(314.768928, 60.213802)"><g><path d="M 4.75 0 L 52.25 0 L 52.25 -9.5 L 14.25 -9.5 L 14.25 -19 L 42.75 -19 L 42.75 -28.5 L 14.25 -28.5 L 14.25 -38 L 52.25 -38 L 52.25 -47.5 L 4.75 -47.5 Z M 4.75 0 "/></g></g></g><g clip-path="url(#id3)"><path fill="#f24444" d="M 117.761719 16.730469 L 117.761719 12.730469 L 113.222656 12.730469 L 113.222656 8.730469 L 95.058594 8.730469 L 95.058594 12.730469 L 90.515625 12.730469 L 90.515625 20.726562 L 85.976562 20.726562 L 85.976562 12.730469 L 81.433594 12.730469 L 81.433594 8.730469 L 63.269531 8.730469 L 63.269531 12.730469 L 58.726562 12.730469 L 58.726562 16.730469 L 54.1875 16.730469 L 54.1875 36.726562 L 58.726562 36.726562 L 58.726562 44.726562 L 63.269531 44.726562 L 63.269531 48.726562 L 67.808594 48.726562 L 67.808594 52.726562 L 72.351562 52.726562 L 72.351562 56.726562 L 76.894531 56.726562 L 76.894531 60.726562 L 81.433594 60.726562 L 81.433594 64.726562 L 85.976562 64.726562 L 85.976562 68.726562 L 90.515625 68.726562 L 90.515625 64.726562 L 95.058594 64.726562 L 95.058594 60.726562 L 99.597656 60.726562 L 99.597656 56.726562 L 104.140625 56.726562 L 104.140625 52.726562 L 108.679688 52.726562 L 108.679688 48.726562 L 113.222656 48.726562 L 113.222656 44.726562 L 117.761719 44.726562 L 117.761719 36.726562 L 122.304688 36.726562 L 122.304688 16.730469 L 117.761719 16.730469 " fill-opacity="1" fill-rule="nonzero"/></g><path fill="#ffeeb7" d="M 76.894531 20.726562 L 76.894531 16.730469 L 63.269531 16.730469 L 63.269531 32.730469 L 76.894531 32.730469 L 76.894531 28.726562 L 81.433594 28.726562 L 81.433594 20.726562 L 76.894531 20.726562 " fill-opacity="1" fill-rule="nonzero"/><g clip-path="url(#id4)"><path fill="#bf4136" d="M 117.761719 16.730469 L 117.761719 12.730469 L 113.222656 12.730469 L 113.222656 8.730469 L 108.683594 8.730469 L 108.683594 16.730469 L 113.222656 16.730469 L 113.222656 32.730469 L 108.683594 32.730469 L 108.683594 40.730469 L 104.140625 40.730469 L 104.140625 48.726562 L 95.058594 48.726562 L 95.058594 52.726562 L 90.515625 52.726562 L 90.515625 56.726562 L 76.894531 56.726562 L 76.894531 60.726562 L 81.433594 60.726562 L 81.433594 64.726562 L 85.976562 64.726562 L 85.976562 68.726562 L 90.515625 68.726562 L 90.515625 64.726562 L 95.058594 64.726562 L 95.058594 60.726562 L 99.597656 60.726562 L 99.597656 56.726562 L 104.140625 56.726562 L 104.140625 52.726562 L 108.679688 52.726562 L 108.679688 48.726562 L 113.222656 48.726562 L 113.222656 44.726562 L 117.761719 44.726562 L 117.761719 36.726562 L 122.304688 36.726562 L 122.304688 16.730469 L 117.761719 16.730469 " fill-opacity="1" fill-rule="nonzero"/></g><g fill="#f24444" fill-opacity="1"><g transform="translate(0.0000075, 65.536941)"><g><path d="M 5.285156 0 L 36.984375 0 L 36.984375 -10.566406 L 26.417969 -10.566406 L 26.417969 -42.269531 L 36.984375 -42.269531 L 36.984375 -52.835938 L 5.285156 -52.835938 L 5.285156 -42.269531 L 15.851562 -42.269531 L 15.851562 -10.566406 L 5.285156 -10.566406 Z M 5.285156 0 "/></g></g></g><g fill="#f24444" fill-opacity="1"><g transform="translate(137.696572, 60.213802)"><g><path d="M 14.25 -38 L 4.75 -38 L 4.75 -28.5 L 14.25 -28.5 Z M 4.75 0 L 42.75 0 L 42.75 -9.5 L 4.75 -9.5 Z M 14.25 -19 L 42.75 -19 L 42.75 -28.5 L 14.25 -28.5 Z M 14.25 -38 L 52.25 -38 L 52.25 -47.5 L 14.25 -47.5 Z M 42.75 -9.5 L 52.25 -9.5 L 52.25 -19 L 42.75 -19 Z M 42.75 -9.5 "/></g></g></g><g fill="#f24444" fill-opacity="1"><g transform="translate(194.692104, 60.213802)"><g><path d="M 23.75 0 L 33.25 0 L 33.25 -38 L 52.25 -38 L 52.25 -47.5 L 4.75 -47.5 L 4.75 -38 L 23.75 -38 Z M 23.75 0 "/></g></g></g><g fill="#f24444" fill-opacity="1"><g transform="translate(251.687637, 60.213802)"><g><path d="M 4.75 0 L 14.25 0 L 14.25 -19 L 42.75 -19 L 42.75 0 L 52.25 0 L 52.25 -47.5 L 42.75 -47.5 L 42.75 -28.5 L 14.25 -28.5 L 14.25 -47.5 L 4.75 -47.5 Z M 4.75 0 "/></g></g></g><g fill="#f24444" fill-opacity="1"><g transform="translate(308.683169, 60.213802)"><g><path d="M 4.75 0 L 52.25 0 L 52.25 -9.5 L 14.25 -9.5 L 14.25 -19 L 42.75 -19 L 42.75 -28.5 L 14.25 -28.5 L 14.25 -38 L 52.25 -38 L 52.25 -47.5 L 4.75 -47.5 Z M 4.75 0 "/></g></g></g></svg>