<?xml version="1.0" standalone="no"?><svg xmlns="http://www.w3.org/2000/svg" viewBox="0 0 1440 320"><path fill="#5C1A1A" fill-opacity="1" d="M0,192L0,128L36.9,128L36.9,288L73.8,288L73.8,128L110.8,128L110.8,0L147.7,0L147.7,96L184.6,96L184.6,32L221.5,32L221.5,64L258.5,64L258.5,224L295.4,224L295.4,320L332.3,320L332.3,224L369.2,224L369.2,32L406.2,32L406.2,128L443.1,128L443.1,128L480,128L480,288L516.9,288L516.9,288L553.8,288L553.8,0L590.8,0L590.8,128L627.7,128L627.7,288L664.6,288L664.6,160L701.5,160L701.5,128L738.5,128L738.5,64L775.4,64L775.4,224L812.3,224L812.3,64L849.2,64L849.2,128L886.2,128L886.2,96L923.1,96L923.1,160L960,160L960,320L996.9,320L996.9,128L1033.8,128L1033.8,288L1070.8,288L1070.8,64L1107.7,64L1107.7,192L1144.6,192L1144.6,192L1181.5,192L1181.5,96L1218.5,96L1218.5,96L1255.4,96L1255.4,160L1292.3,160L1292.3,288L1329.2,288L1329.2,192L1366.2,192L1366.2,32L1403.1,32L1403.1,320L1440,320L1440,320L1403.1,320L1403.1,320L1366.2,320L1366.2,320L1329.2,320L1329.2,320L1292.3,320L1292.3,320L1255.4,320L1255.4,320L1218.5,320L1218.5,320L1181.5,320L1181.5,320L1144.6,320L1144.6,320L1107.7,320L1107.7,320L1070.8,320L1070.8,320L1033.8,320L1033.8,320L996.9,320L996.9,320L960,320L960,320L923.1,320L923.1,320L886.2,320L886.2,320L849.2,320L849.2,320L812.3,320L812.3,320L775.4,320L775.4,320L738.5,320L738.5,320L701.5,320L701.5,320L664.6,320L664.6,320L627.7,320L627.7,320L590.8,320L590.8,320L553.8,320L553.8,320L516.9,320L516.9,320L480,320L480,320L443.1,320L443.1,320L406.2,320L406.2,320L369.2,320L369.2,320L332.3,320L332.3,320L295.4,320L295.4,320L258.5,320L258.5,320L221.5,320L221.5,320L184.6,320L184.6,320L147.7,320L147.7,320L110.8,320L110.8,320L73.8,320L73.8,320L36.9,320L36.9,320L0,320L0,320Z"></path></svg>