<?xml version="1.0" standalone="no"?><svg xmlns="http://www.w3.org/2000/svg" viewBox="0 0 1440 320"><path fill="#5C1A1A" fill-opacity="1" d="M0,0L0,64L36.9,64L36.9,96L73.8,96L73.8,224L110.8,224L110.8,128L147.7,128L147.7,192L184.6,192L184.6,64L221.5,64L221.5,288L258.5,288L258.5,288L295.4,288L295.4,96L332.3,96L332.3,224L369.2,224L369.2,32L406.2,32L406.2,128L443.1,128L443.1,32L480,32L480,128L516.9,128L516.9,192L553.8,192L553.8,64L590.8,64L590.8,0L627.7,0L627.7,256L664.6,256L664.6,224L701.5,224L701.5,160L738.5,160L738.5,160L775.4,160L775.4,32L812.3,32L812.3,0L849.2,0L849.2,192L886.2,192L886.2,128L923.1,128L923.1,160L960,160L960,160L996.9,160L996.9,32L1033.8,32L1033.8,96L1070.8,96L1070.8,288L1107.7,288L1107.7,160L1144.6,160L1144.6,192L1181.5,192L1181.5,128L1218.5,128L1218.5,160L1255.4,160L1255.4,96L1292.3,96L1292.3,160L1329.2,160L1329.2,224L1366.2,224L1366.2,160L1403.1,160L1403.1,128L1440,128L1440,320L1403.1,320L1403.1,320L1366.2,320L1366.2,320L1329.2,320L1329.2,320L1292.3,320L1292.3,320L1255.4,320L1255.4,320L1218.5,320L1218.5,320L1181.5,320L1181.5,320L1144.6,320L1144.6,320L1107.7,320L1107.7,320L1070.8,320L1070.8,320L1033.8,320L1033.8,320L996.9,320L996.9,320L960,320L960,320L923.1,320L923.1,320L886.2,320L886.2,320L849.2,320L849.2,320L812.3,320L812.3,320L775.4,320L775.4,320L738.5,320L738.5,320L701.5,320L701.5,320L664.6,320L664.6,320L627.7,320L627.7,320L590.8,320L590.8,320L553.8,320L553.8,320L516.9,320L516.9,320L480,320L480,320L443.1,320L443.1,320L406.2,320L406.2,320L369.2,320L369.2,320L332.3,320L332.3,320L295.4,320L295.4,320L258.5,320L258.5,320L221.5,320L221.5,320L184.6,320L184.6,320L147.7,320L147.7,320L110.8,320L110.8,320L73.8,320L73.8,320L36.9,320L36.9,320L0,320L0,320Z"></path></svg>