<?xml version="1.0" encoding="utf-8"?>
<!-- Generator: Adobe Illustrator 25.2.1, SVG Export Plug-In . SVG Version: 6.00 Build 0)  -->
<svg version="1.1" id="Camada_1" xmlns="http://www.w3.org/2000/svg" xmlns:xlink="http://www.w3.org/1999/xlink" x="0px" y="0px"
	 viewBox="0 0 1440 320" style="enable-background:new 0 0 1440 320;" xml:space="preserve">
<style type="text/css">
	.st0{fill:#B45D58;}
</style>
<path class="st0" d="M0,36.3h34.3c34.3,0,102.7,0,171.7,12.1c68.3,12.1,137,36.3,205,38.3c69,2.2,138-18.3,206-36.3
	c68.7-18.3,137-34.2,206-26.2c68.4,7.9,137,40.5,206,60.5c68.1,20.1,137,28.4,205,24.2c68.9-4.2,137-20.1,172-28.3l34-8.1V0h-34.3
	C1371.4,0,1303,0,1234,0c-68.3,0-137,0-205,0c-69,0-138,0-206,0c-68.7,0-137,0-206,0c-68.4,0-137,0-206,0c-68.1,0-137,0-205,0
	C137.1,0,69,0,34,0H0V36.3z"/>
</svg>
