<svg xmlns="http://www.w3.org/2000/svg" xmlns:xlink="http://www.w3.org/1999/xlink" width="500" zoomAndPan="magnify" viewBox="0 0 375 93.749996" height="125" preserveAspectRatio="xMidYMid meet" version="1.0"><defs><g/><clipPath id="id1"><path d="M 87.8125 12.460938 L 166.15625 12.460938 L 166.15625 81.335938 L 87.8125 81.335938 Z M 87.8125 12.460938 " clip-rule="nonzero"/></clipPath><clipPath id="id2"><path d="M 113 12.460938 L 166.15625 12.460938 L 166.15625 81.335938 L 113 81.335938 Z M 113 12.460938 " clip-rule="nonzero"/></clipPath><clipPath id="id3"><path d="M 81.773438 12.460938 L 160.121094 12.460938 L 160.121094 81.335938 L 81.773438 81.335938 Z M 81.773438 12.460938 " clip-rule="nonzero"/></clipPath><clipPath id="id4"><path d="M 107 12.460938 L 160.121094 12.460938 L 160.121094 81.335938 L 107 81.335938 Z M 107 12.460938 " clip-rule="nonzero"/></clipPath></defs><g fill="#545454" fill-opacity="1"><g transform="translate(14.52889, 80.714854)"><g><path d="M -1.582031 1.082031 C -1.332031 1.746094 -0.582031 1.996094 0.582031 1.996094 L 1.246094 1.996094 C 2.746094 1.914062 5.820312 1.332031 10.394531 0.167969 C 12.558594 -0.332031 14.71875 -0.832031 16.964844 -1.496094 C 19.128906 -1.996094 21.289062 -2.660156 23.453125 -3.328125 C 27.359375 -4.492188 30.851562 -5.570312 33.847656 -6.734375 C 36.839844 -7.816406 38.671875 -8.648438 39.503906 -9.3125 C 39.835938 -9.648438 40.085938 -9.894531 40.085938 -10.0625 C 40.085938 -10.230469 39.835938 -10.394531 39.503906 -10.644531 C 39.085938 -10.8125 37.921875 -10.8125 35.925781 -10.8125 C 33.847656 -10.644531 31.683594 -10.476562 29.441406 -10.3125 C 27.859375 -10.144531 26.363281 -9.894531 25.03125 -9.730469 C 23.617188 -9.480469 22.453125 -9.230469 21.621094 -9.066406 C 20.789062 -8.816406 20.042969 -8.648438 19.375 -8.566406 C 18.710938 -8.484375 18.296875 -8.484375 18.210938 -8.648438 C 18.046875 -8.730469 18.378906 -9.648438 19.128906 -11.476562 C 19.792969 -13.304688 20.789062 -15.386719 21.953125 -17.796875 C 22.289062 -18.628906 22.785156 -19.625 23.367188 -20.875 C 23.867188 -22.039062 24.449219 -23.285156 25.113281 -24.78125 C 26.28125 -27.359375 27.527344 -30.1875 28.859375 -33.347656 C 30.1875 -36.425781 31.433594 -39.417969 32.601562 -42.246094 C 34.261719 -46.488281 35.84375 -50.230469 37.339844 -53.472656 C 38.671875 -56.632812 39.503906 -58.296875 39.667969 -58.546875 C 39.835938 -58.714844 40.75 -58.960938 42.578125 -59.296875 C 44.324219 -59.628906 46.320312 -59.878906 48.648438 -60.125 C 52.976562 -60.625 55.71875 -61.125 56.964844 -61.625 C 57.632812 -61.789062 57.882812 -62.039062 57.882812 -62.371094 C 57.882812 -62.621094 57.546875 -62.953125 56.964844 -63.285156 C 55.550781 -64.035156 53.222656 -64.535156 50.0625 -64.699219 L 47.570312 -64.699219 C 45.15625 -64.699219 42.664062 -64.535156 40.085938 -64.285156 C 38.253906 -64.035156 36.425781 -63.703125 34.679688 -63.371094 C 32.847656 -63.039062 31.269531 -62.621094 29.773438 -62.121094 C 27.109375 -61.125 25.699219 -60.375 25.699219 -59.792969 C 25.613281 -59.210938 26.863281 -58.960938 29.523438 -58.960938 C 30.851562 -58.960938 31.933594 -58.878906 32.601562 -58.714844 C 33.265625 -58.546875 33.679688 -58.378906 33.679688 -58.046875 C 33.679688 -57.796875 33.097656 -56.46875 31.933594 -54.054688 C 30.769531 -51.5625 29.355469 -48.734375 27.777344 -45.574219 C 24.617188 -39.417969 22.039062 -33.847656 20.042969 -28.773438 C 17.964844 -23.617188 16.300781 -18.628906 15.050781 -13.804688 C 14.554688 -12.140625 14.136719 -10.726562 13.640625 -9.398438 C 13.140625 -8.066406 12.722656 -7.316406 12.558594 -7.152344 C 12.308594 -6.902344 11.476562 -6.488281 10.144531 -5.820312 C 8.648438 -5.15625 7.070312 -4.574219 5.40625 -3.910156 C 2.164062 -2.660156 0.0820312 -1.746094 -0.75 -1.164062 C -1.414062 -0.664062 -1.664062 -0.167969 -1.664062 0.414062 C -1.664062 0.664062 -1.664062 0.914062 -1.582031 1.082031 Z M -1.582031 1.082031 "/></g></g></g><g fill="#f24444" fill-opacity="1"><g transform="translate(12.421157, 78.607119)"><g><path d="M -1.582031 1.082031 C -1.332031 1.746094 -0.582031 1.996094 0.582031 1.996094 L 1.246094 1.996094 C 2.746094 1.914062 5.820312 1.332031 10.394531 0.167969 C 12.558594 -0.332031 14.71875 -0.832031 16.964844 -1.496094 C 19.128906 -1.996094 21.289062 -2.660156 23.453125 -3.328125 C 27.359375 -4.492188 30.851562 -5.570312 33.847656 -6.734375 C 36.839844 -7.816406 38.671875 -8.648438 39.503906 -9.3125 C 39.835938 -9.648438 40.085938 -9.894531 40.085938 -10.0625 C 40.085938 -10.230469 39.835938 -10.394531 39.503906 -10.644531 C 39.085938 -10.8125 37.921875 -10.8125 35.925781 -10.8125 C 33.847656 -10.644531 31.683594 -10.476562 29.441406 -10.3125 C 27.859375 -10.144531 26.363281 -9.894531 25.03125 -9.730469 C 23.617188 -9.480469 22.453125 -9.230469 21.621094 -9.066406 C 20.789062 -8.816406 20.042969 -8.648438 19.375 -8.566406 C 18.710938 -8.484375 18.296875 -8.484375 18.210938 -8.648438 C 18.046875 -8.730469 18.378906 -9.648438 19.128906 -11.476562 C 19.792969 -13.304688 20.789062 -15.386719 21.953125 -17.796875 C 22.289062 -18.628906 22.785156 -19.625 23.367188 -20.875 C 23.867188 -22.039062 24.449219 -23.285156 25.113281 -24.78125 C 26.28125 -27.359375 27.527344 -30.1875 28.859375 -33.347656 C 30.1875 -36.425781 31.433594 -39.417969 32.601562 -42.246094 C 34.261719 -46.488281 35.84375 -50.230469 37.339844 -53.472656 C 38.671875 -56.632812 39.503906 -58.296875 39.667969 -58.546875 C 39.835938 -58.714844 40.75 -58.960938 42.578125 -59.296875 C 44.324219 -59.628906 46.320312 -59.878906 48.648438 -60.125 C 52.976562 -60.625 55.71875 -61.125 56.964844 -61.625 C 57.632812 -61.789062 57.882812 -62.039062 57.882812 -62.371094 C 57.882812 -62.621094 57.546875 -62.953125 56.964844 -63.285156 C 55.550781 -64.035156 53.222656 -64.535156 50.0625 -64.699219 L 47.570312 -64.699219 C 45.15625 -64.699219 42.664062 -64.535156 40.085938 -64.285156 C 38.253906 -64.035156 36.425781 -63.703125 34.679688 -63.371094 C 32.847656 -63.039062 31.269531 -62.621094 29.773438 -62.121094 C 27.109375 -61.125 25.699219 -60.375 25.699219 -59.792969 C 25.613281 -59.210938 26.863281 -58.960938 29.523438 -58.960938 C 30.851562 -58.960938 31.933594 -58.878906 32.601562 -58.714844 C 33.265625 -58.546875 33.679688 -58.378906 33.679688 -58.046875 C 33.679688 -57.796875 33.097656 -56.46875 31.933594 -54.054688 C 30.769531 -51.5625 29.355469 -48.734375 27.777344 -45.574219 C 24.617188 -39.417969 22.039062 -33.847656 20.042969 -28.773438 C 17.964844 -23.617188 16.300781 -18.628906 15.050781 -13.804688 C 14.554688 -12.140625 14.136719 -10.726562 13.640625 -9.398438 C 13.140625 -8.066406 12.722656 -7.316406 12.558594 -7.152344 C 12.308594 -6.902344 11.476562 -6.488281 10.144531 -5.820312 C 8.648438 -5.15625 7.070312 -4.574219 5.40625 -3.910156 C 2.164062 -2.660156 0.0820312 -1.746094 -0.75 -1.164062 C -1.414062 -0.664062 -1.664062 -0.167969 -1.664062 0.414062 C -1.664062 0.664062 -1.664062 0.914062 -1.582031 1.082031 Z M -1.582031 1.082031 "/></g></g></g><g fill="#545454" fill-opacity="1"><g transform="translate(58.845482, 80.714854)"><g/></g></g><g fill="#545454" fill-opacity="1"><g transform="translate(81.795423, 80.714854)"><g/></g></g><g fill="#545454" fill-opacity="1"><g transform="translate(104.745364, 80.714854)"><g/></g></g><g fill="#545454" fill-opacity="1"><g transform="translate(127.695305, 80.714854)"><g/></g></g><g fill="#545454" fill-opacity="1"><g transform="translate(150.645247, 80.714854)"><g/></g></g><g fill="#f24444" fill-opacity="1"><g transform="translate(56.737749, 78.607119)"><g/></g></g><g fill="#f24444" fill-opacity="1"><g transform="translate(79.68769, 78.607119)"><g/></g></g><g fill="#f24444" fill-opacity="1"><g transform="translate(102.637631, 78.607119)"><g/></g></g><g fill="#f24444" fill-opacity="1"><g transform="translate(125.587573, 78.607119)"><g/></g></g><g fill="#f24444" fill-opacity="1"><g transform="translate(148.537514, 78.607119)"><g/></g></g><g fill="#545454" fill-opacity="1"><g transform="translate(173.592816, 80.714854)"><g><path d="M 11.0625 -0.332031 C 13.054688 0.332031 15.136719 0.582031 17.296875 0.582031 C 20.457031 0.582031 23.867188 0 27.609375 -1.246094 C 33.765625 -3.410156 39.503906 -6.984375 44.824219 -11.976562 C 48.734375 -15.550781 51.144531 -18.878906 52.144531 -22.039062 C 52.476562 -23.035156 52.640625 -23.949219 52.640625 -24.867188 C 52.640625 -26.695312 51.894531 -28.273438 50.5625 -29.6875 C 49.066406 -31.1875 47.070312 -32.183594 44.742188 -32.683594 C 42.246094 -33.183594 38.171875 -33.429688 32.351562 -33.429688 C 29.523438 -33.429688 26.945312 -33.515625 24.617188 -33.679688 C 22.289062 -33.847656 20.957031 -34.011719 20.625 -34.179688 C 18.960938 -35.011719 18.792969 -36.675781 19.960938 -39.085938 C 21.125 -41.414062 23.617188 -44.410156 27.445312 -47.984375 C 29.441406 -49.816406 31.601562 -51.644531 34.097656 -53.472656 C 36.425781 -55.136719 38.671875 -56.550781 40.75 -57.632812 C 41.746094 -58.214844 42.746094 -58.714844 43.578125 -59.046875 C 44.410156 -59.378906 45.15625 -59.542969 45.738281 -59.542969 C 46.65625 -59.542969 46.40625 -58.796875 45.074219 -57.464844 C 43.660156 -56.136719 41.664062 -54.636719 39.167969 -53.058594 C 36.839844 -51.644531 35.425781 -50.480469 34.84375 -49.648438 C 34.179688 -48.816406 34.261719 -48.152344 35.179688 -47.820312 C 35.84375 -47.570312 37.421875 -48.152344 39.75 -49.480469 C 41.996094 -50.8125 44.242188 -52.390625 46.488281 -54.222656 C 47.984375 -55.386719 49.230469 -56.46875 50.3125 -57.632812 C 51.394531 -58.628906 52.058594 -59.542969 52.308594 -60.292969 C 52.726562 -61.625 52.558594 -62.703125 51.726562 -63.535156 C 50.894531 -64.285156 49.480469 -64.699219 47.652344 -64.699219 C 44.660156 -64.699219 41 -63.453125 36.589844 -61.042969 C 32.183594 -58.628906 28.109375 -55.800781 24.367188 -52.476562 C 22.289062 -50.644531 20.457031 -48.734375 18.878906 -46.902344 C 17.214844 -44.90625 15.96875 -43.078125 15.136719 -41.414062 C 13.886719 -39.003906 13.304688 -37.089844 13.304688 -35.59375 C 13.304688 -34.097656 13.886719 -32.683594 15.136719 -31.269531 C 16.464844 -29.6875 18.210938 -28.691406 20.542969 -28.191406 C 22.785156 -27.691406 26.945312 -27.527344 33.015625 -27.527344 C 37.507812 -27.527344 40.5 -27.445312 41.996094 -27.277344 C 43.410156 -27.109375 44.492188 -26.695312 45.242188 -26.113281 C 46.238281 -25.28125 46.570312 -24.367188 46.15625 -23.367188 C 45.65625 -22.371094 44.160156 -20.707031 41.664062 -18.460938 C 39.503906 -16.464844 36.675781 -14.636719 33.347656 -12.972656 C 30.023438 -11.226562 26.695312 -9.980469 23.453125 -9.148438 C 20.207031 -8.316406 16.800781 -7.984375 13.140625 -8.234375 C 9.398438 -8.398438 6.820312 -8.980469 5.324219 -10.144531 C 3.824219 -11.144531 2.910156 -11.726562 2.578125 -11.726562 C 2.246094 -11.726562 2.078125 -11.308594 2.078125 -10.3125 C 2.078125 -8.316406 2.910156 -6.402344 4.742188 -4.40625 C 6.488281 -2.410156 8.566406 -0.996094 11.0625 -0.332031 Z M 11.0625 -0.332031 "/></g></g></g><g fill="#545454" fill-opacity="1"><g transform="translate(228.140502, 80.714854)"><g><path d="M 32.515625 -54.722656 C 34.679688 -57.714844 35.59375 -60.542969 35.261719 -63.203125 C 34.929688 -65.699219 33.847656 -66.945312 32.183594 -66.945312 L 32.019531 -66.945312 C 31.351562 -66.945312 30.6875 -66.78125 29.9375 -66.445312 C 29.105469 -66.113281 28.273438 -65.617188 27.445312 -64.949219 C 26.613281 -64.367188 25.613281 -63.535156 24.53125 -62.539062 C 23.453125 -61.457031 22.371094 -60.292969 21.207031 -58.960938 C 18.878906 -56.46875 16.632812 -53.640625 14.304688 -50.480469 C 11.890625 -47.320312 9.894531 -44.242188 8.316406 -41.332031 C 7.652344 -40.167969 7.070312 -39.085938 6.570312 -38.253906 L 5.074219 -35.761719 L 1.664062 -35.761719 C -0.5 -35.84375 -1.582031 -35.261719 -1.664062 -34.011719 L -1.664062 -33.679688 C -1.664062 -32.515625 -1.246094 -31.683594 -0.25 -31.019531 C -0.0820312 -30.851562 0.414062 -30.769531 1.164062 -30.769531 C 1.828125 -30.769531 2.328125 -30.6875 2.828125 -30.6875 C 2.828125 -30.1875 2.496094 -29.441406 1.996094 -28.273438 C 1.414062 -27.109375 0.832031 -25.699219 0.25 -24.199219 C -0.167969 -23.203125 -0.5 -22.039062 -0.75 -20.875 C -1.082031 -19.542969 -1.246094 -18.296875 -1.332031 -16.964844 C -1.664062 -14.386719 -1.746094 -11.976562 -1.582031 -9.730469 C -1.496094 -7.402344 -1.164062 -5.90625 -0.582031 -5.238281 C 0.414062 -3.660156 1.914062 -2.910156 3.824219 -2.992188 L 4.492188 -2.992188 C 6.652344 -3.160156 9.148438 -4.074219 11.808594 -5.570312 C 13.640625 -6.570312 15.632812 -7.734375 17.964844 -9.148438 C 20.207031 -10.476562 23.785156 -12.808594 28.691406 -16.132812 C 31.933594 -18.296875 34.929688 -19.960938 37.589844 -21.289062 C 40.25 -22.621094 42.082031 -23.535156 43.160156 -24.199219 C 43.410156 -24.285156 43.492188 -24.449219 43.492188 -24.617188 L 43.492188 -24.699219 C 43.410156 -24.867188 43.160156 -24.949219 42.828125 -25.03125 C 41.414062 -25.113281 39.085938 -24.699219 35.761719 -23.703125 C 32.433594 -22.703125 27.859375 -20.542969 22.121094 -17.214844 C 19.542969 -15.71875 17.382812 -14.554688 15.550781 -13.554688 C 13.722656 -12.558594 12.140625 -11.726562 10.976562 -11.144531 C 8.066406 -9.730469 6.402344 -9.230469 5.90625 -9.5625 C 5.40625 -9.894531 4.988281 -10.476562 4.65625 -11.308594 C 4.40625 -11.808594 4.40625 -12.972656 4.65625 -14.804688 C 4.824219 -16.632812 5.238281 -18.546875 5.820312 -20.542969 C 6.070312 -21.621094 6.402344 -22.703125 6.734375 -23.785156 C 7.070312 -24.78125 7.484375 -25.699219 7.902344 -26.527344 C 8.816406 -28.359375 9.480469 -29.773438 9.980469 -30.769531 C 11.476562 -31.019531 12.972656 -31.269531 14.636719 -31.433594 C 16.132812 -31.601562 17.628906 -31.851562 19.042969 -32.101562 C 21.371094 -32.433594 23.285156 -32.765625 24.699219 -33.183594 C 26.03125 -33.515625 26.777344 -33.929688 26.777344 -34.347656 C 26.945312 -34.84375 26.113281 -35.261719 24.449219 -35.425781 C 22.703125 -35.59375 20.875 -35.675781 18.960938 -35.675781 C 17.796875 -35.761719 16.464844 -35.761719 15.136719 -35.761719 L 11.976562 -35.761719 C 11.976562 -36.175781 12.472656 -36.839844 13.554688 -37.671875 C 14.636719 -38.503906 16.214844 -39.667969 18.378906 -41.082031 C 19.710938 -41.914062 21.207031 -43.160156 23.035156 -44.742188 C 24.867188 -46.238281 26.527344 -47.902344 28.191406 -49.566406 C 29.023438 -50.398438 29.855469 -51.3125 30.605469 -52.226562 C 31.351562 -53.058594 32.019531 -53.890625 32.515625 -54.722656 Z M 27.359375 -59.628906 C 28.027344 -60.210938 28.609375 -60.707031 29.191406 -61.125 C 29.605469 -61.457031 29.9375 -61.625 30.1875 -61.625 L 30.269531 -61.625 C 30.269531 -61.625 30.355469 -61.539062 30.355469 -61.539062 L 30.355469 -61.457031 C 30.355469 -61.375 30.4375 -61.289062 30.4375 -61.289062 C 30.4375 -60.625 29.855469 -59.542969 28.773438 -57.964844 C 27.527344 -56.136719 25.863281 -54.140625 23.785156 -51.808594 C 21.953125 -49.816406 20.207031 -48.152344 18.378906 -46.65625 C 17.046875 -45.488281 16.132812 -44.992188 15.800781 -44.992188 C 15.632812 -44.992188 15.632812 -45.074219 15.632812 -45.242188 C 15.632812 -45.488281 16.214844 -46.488281 17.546875 -48.234375 C 18.878906 -49.898438 20.292969 -51.644531 21.871094 -53.558594 C 22.871094 -54.722656 23.949219 -55.886719 24.949219 -57.050781 C 25.945312 -58.128906 26.695312 -58.960938 27.359375 -59.628906 Z M 27.359375 -59.628906 "/></g></g></g><g fill="#545454" fill-opacity="1"><g transform="translate(269.051267, 80.714854)"><g><path d="M 35.011719 -68.609375 C 34.597656 -68.859375 34.179688 -69.023438 33.847656 -69.191406 C 33.515625 -69.273438 33.183594 -69.359375 32.847656 -69.359375 L 32.515625 -69.359375 C 31.683594 -69.191406 30.769531 -68.859375 29.773438 -68.359375 C 28.691406 -67.777344 27.445312 -66.945312 26.03125 -65.949219 C 23.035156 -63.703125 20.042969 -60.460938 16.882812 -56.136719 C 13.722656 -51.808594 10.726562 -46.988281 7.902344 -41.664062 C 6.320312 -38.835938 4.824219 -35.925781 3.492188 -32.933594 C 2.078125 -29.855469 0.832031 -26.863281 -0.25 -23.867188 C -2.078125 -19.210938 -3.492188 -14.804688 -4.574219 -10.5625 C -5.65625 -6.238281 -6.238281 -2.410156 -6.238281 0.914062 C -6.320312 1.496094 -6.320312 1.996094 -6.320312 2.496094 C -6.320312 3.742188 -6.320312 4.574219 -6.152344 4.988281 C -6.070312 5.65625 -5.820312 5.90625 -5.324219 5.90625 L -5.238281 5.90625 C -4.65625 5.90625 -3.742188 5.074219 -2.578125 3.574219 C -1.414062 2.078125 0.832031 -1.082031 3.992188 -5.90625 C 4.824219 -7.152344 5.738281 -8.484375 6.734375 -9.894531 L 9.894531 -13.886719 C 11.808594 -16.300781 13.640625 -18.378906 15.386719 -20.207031 C 17.132812 -21.953125 18.296875 -22.871094 18.792969 -22.953125 C 19.460938 -22.953125 19.875 -22.785156 19.875 -22.289062 C 19.875 -21.789062 19.460938 -19.960938 18.792969 -16.882812 C 17.796875 -12.472656 17.878906 -9.3125 19.042969 -7.316406 C 20.125 -5.324219 22.289062 -4.492188 25.613281 -4.824219 C 28.941406 -4.988281 32.933594 -6.570312 37.671875 -9.480469 C 42.328125 -12.308594 47.734375 -16.300781 53.722656 -21.621094 C 55.886719 -23.453125 56.964844 -24.617188 56.964844 -25.03125 C 56.964844 -25.199219 56.800781 -25.199219 56.46875 -25.199219 C 55.304688 -24.949219 51.976562 -23.285156 46.65625 -20.207031 C 45.988281 -19.875 44.660156 -18.960938 42.578125 -17.628906 C 40.417969 -16.300781 38.171875 -14.96875 35.675781 -13.640625 C 32.601562 -11.976562 29.773438 -10.726562 27.109375 -9.894531 C 24.367188 -8.980469 22.871094 -9.398438 22.535156 -11.226562 C 22.371094 -11.726562 22.453125 -12.640625 22.621094 -13.886719 C 22.703125 -15.050781 22.953125 -16.300781 23.285156 -17.628906 C 24.285156 -21.371094 24.53125 -24.117188 24.035156 -25.945312 C 23.535156 -27.609375 22.203125 -28.441406 20.207031 -28.273438 C 18.878906 -28.109375 17.214844 -27.277344 15.21875 -25.699219 C 13.222656 -24.035156 10.726562 -21.457031 7.734375 -18.046875 C 4.824219 -14.71875 3.328125 -13.304688 3.160156 -13.972656 C 2.992188 -14.46875 4.074219 -17.546875 6.402344 -23.035156 C 6.734375 -23.867188 6.984375 -24.53125 7.316406 -25.199219 C 7.566406 -25.863281 7.816406 -26.445312 8.148438 -26.945312 C 8.816406 -28.441406 9.5625 -29.605469 10.394531 -30.355469 C 11.144531 -31.101562 12.390625 -32.101562 14.222656 -33.347656 C 16.632812 -35.011719 19.210938 -37.257812 21.953125 -40.085938 C 24.617188 -42.910156 27.109375 -45.824219 29.355469 -48.816406 C 30.519531 -50.398438 31.519531 -51.976562 32.433594 -53.558594 C 33.347656 -55.054688 34.097656 -56.382812 34.597656 -57.714844 C 35.84375 -60.875 36.507812 -63.285156 36.589844 -64.867188 C 36.589844 -66.445312 36.09375 -67.695312 35.011719 -68.609375 Z M 30.023438 -64.367188 C 30.519531 -64.699219 30.851562 -65.035156 31.1875 -65.199219 C 31.519531 -65.367188 31.769531 -65.449219 31.933594 -65.449219 L 32.019531 -65.449219 C 32.183594 -65.449219 32.265625 -65.367188 32.433594 -65.28125 C 32.515625 -65.117188 32.601562 -64.949219 32.765625 -64.699219 C 32.847656 -64.367188 32.933594 -64.117188 32.933594 -63.785156 C 32.933594 -63.285156 32.847656 -62.789062 32.683594 -62.207031 C 32.351562 -61.125 31.851562 -59.878906 31.1875 -58.378906 C 29.855469 -55.71875 27.941406 -52.640625 25.53125 -49.316406 C 23.035156 -45.988281 20.542969 -43.078125 17.964844 -40.582031 C 14.804688 -37.507812 12.890625 -36.007812 12.308594 -36.007812 C 12.140625 -36.007812 12.140625 -36.007812 12.140625 -36.09375 L 12.140625 -36.257812 C 12.140625 -37.089844 13.390625 -40 16.050781 -45.15625 C 18.210938 -49.316406 20.707031 -53.308594 23.367188 -57.050781 C 26.03125 -60.707031 28.191406 -63.203125 30.023438 -64.367188 Z M 30.023438 -64.367188 "/></g></g></g><g fill="#545454" fill-opacity="1"><g transform="translate(323.765258, 80.714854)"><g><path d="M 18.296875 -27.027344 C 19.542969 -28.609375 19.875 -30.023438 19.210938 -31.351562 C 18.546875 -32.515625 17.214844 -33.265625 15.386719 -33.429688 L 13.972656 -33.429688 C 13.472656 -33.347656 12.972656 -33.265625 12.472656 -33.183594 C 9.980469 -32.601562 7.484375 -31.433594 5.15625 -29.605469 C 2.746094 -27.777344 0.832031 -25.699219 -0.582031 -23.535156 C -1.414062 -22.371094 -1.996094 -21.207031 -2.328125 -20.042969 C -2.660156 -19.042969 -2.828125 -18.210938 -2.828125 -17.382812 L -2.828125 -16.800781 C -2.660156 -15.386719 -2.164062 -14.054688 -1.164062 -12.890625 C -0.332031 -11.644531 0.832031 -10.644531 2.328125 -9.980469 C 3.910156 -9.148438 6.238281 -8.648438 9.230469 -8.484375 L 10.230469 -8.484375 C 12.890625 -8.484375 15.882812 -8.898438 19.042969 -9.8125 C 20.707031 -10.3125 22.535156 -10.894531 24.449219 -11.726562 C 26.28125 -12.558594 28.191406 -13.390625 30.023438 -14.386719 C 33.347656 -16.050781 36.257812 -17.878906 38.753906 -19.792969 C 41.25 -21.621094 42.496094 -22.953125 42.578125 -23.867188 L 42.578125 -24.035156 C 42.578125 -24.199219 42.496094 -24.449219 42.496094 -24.617188 C 42.414062 -24.78125 42.328125 -24.949219 42.328125 -24.949219 C 42.164062 -24.949219 40.832031 -24.449219 38.339844 -23.453125 C 35.761719 -22.453125 32.765625 -21.207031 29.355469 -19.625 C 22.289062 -16.300781 16.800781 -14.386719 12.808594 -14.054688 C 8.816406 -13.640625 5.570312 -14.054688 3.160156 -15.386719 C 2.164062 -16.050781 1.664062 -16.882812 1.582031 -17.878906 C 1.414062 -18.792969 1.746094 -19.960938 2.578125 -21.371094 C 2.910156 -22.039062 3.410156 -22.535156 4.074219 -22.871094 C 4.65625 -23.121094 5.65625 -23.285156 7.070312 -23.367188 C 9.5625 -23.535156 11.890625 -23.949219 14.054688 -24.617188 C 16.132812 -25.28125 17.546875 -26.03125 18.296875 -27.027344 Z M 10.726562 -28.773438 C 11.644531 -29.191406 12.390625 -29.441406 13.054688 -29.523438 C 13.554688 -29.523438 13.886719 -29.605469 14.222656 -29.605469 L 14.46875 -29.605469 C 14.71875 -29.523438 14.886719 -29.441406 14.886719 -29.273438 C 14.886719 -29.105469 14.804688 -28.941406 14.636719 -28.691406 C 14.136719 -28.109375 13.722656 -27.691406 13.222656 -27.445312 C 11.726562 -26.695312 10.476562 -26.28125 9.648438 -26.195312 C 8.898438 -26.113281 8.398438 -26.113281 8.066406 -26.113281 L 7.816406 -26.113281 C 7.566406 -26.113281 7.484375 -26.195312 7.484375 -26.363281 C 7.484375 -26.527344 7.652344 -26.695312 8.066406 -27.027344 C 8.730469 -27.609375 9.648438 -28.191406 10.726562 -28.773438 Z M 10.726562 -28.773438 "/></g></g></g><g fill="#f24444" fill-opacity="1"><g transform="translate(171.485083, 78.607119)"><g><path d="M 11.0625 -0.332031 C 13.054688 0.332031 15.136719 0.582031 17.296875 0.582031 C 20.457031 0.582031 23.867188 0 27.609375 -1.246094 C 33.765625 -3.410156 39.503906 -6.984375 44.824219 -11.976562 C 48.734375 -15.550781 51.144531 -18.878906 52.144531 -22.039062 C 52.476562 -23.035156 52.640625 -23.949219 52.640625 -24.867188 C 52.640625 -26.695312 51.894531 -28.273438 50.5625 -29.6875 C 49.066406 -31.1875 47.070312 -32.183594 44.742188 -32.683594 C 42.246094 -33.183594 38.171875 -33.429688 32.351562 -33.429688 C 29.523438 -33.429688 26.945312 -33.515625 24.617188 -33.679688 C 22.289062 -33.847656 20.957031 -34.011719 20.625 -34.179688 C 18.960938 -35.011719 18.792969 -36.675781 19.960938 -39.085938 C 21.125 -41.414062 23.617188 -44.410156 27.445312 -47.984375 C 29.441406 -49.816406 31.601562 -51.644531 34.097656 -53.472656 C 36.425781 -55.136719 38.671875 -56.550781 40.75 -57.632812 C 41.746094 -58.214844 42.746094 -58.714844 43.578125 -59.046875 C 44.410156 -59.378906 45.15625 -59.542969 45.738281 -59.542969 C 46.65625 -59.542969 46.40625 -58.796875 45.074219 -57.464844 C 43.660156 -56.136719 41.664062 -54.636719 39.167969 -53.058594 C 36.839844 -51.644531 35.425781 -50.480469 34.84375 -49.648438 C 34.179688 -48.816406 34.261719 -48.152344 35.179688 -47.820312 C 35.84375 -47.570312 37.421875 -48.152344 39.75 -49.480469 C 41.996094 -50.8125 44.242188 -52.390625 46.488281 -54.222656 C 47.984375 -55.386719 49.230469 -56.46875 50.3125 -57.632812 C 51.394531 -58.628906 52.058594 -59.542969 52.308594 -60.292969 C 52.726562 -61.625 52.558594 -62.703125 51.726562 -63.535156 C 50.894531 -64.285156 49.480469 -64.699219 47.652344 -64.699219 C 44.660156 -64.699219 41 -63.453125 36.589844 -61.042969 C 32.183594 -58.628906 28.109375 -55.800781 24.367188 -52.476562 C 22.289062 -50.644531 20.457031 -48.734375 18.878906 -46.902344 C 17.214844 -44.90625 15.96875 -43.078125 15.136719 -41.414062 C 13.886719 -39.003906 13.304688 -37.089844 13.304688 -35.59375 C 13.304688 -34.097656 13.886719 -32.683594 15.136719 -31.269531 C 16.464844 -29.6875 18.210938 -28.691406 20.542969 -28.191406 C 22.785156 -27.691406 26.945312 -27.527344 33.015625 -27.527344 C 37.507812 -27.527344 40.5 -27.445312 41.996094 -27.277344 C 43.410156 -27.109375 44.492188 -26.695312 45.242188 -26.113281 C 46.238281 -25.28125 46.570312 -24.367188 46.15625 -23.367188 C 45.65625 -22.371094 44.160156 -20.707031 41.664062 -18.460938 C 39.503906 -16.464844 36.675781 -14.636719 33.347656 -12.972656 C 30.023438 -11.226562 26.695312 -9.980469 23.453125 -9.148438 C 20.207031 -8.316406 16.800781 -7.984375 13.140625 -8.234375 C 9.398438 -8.398438 6.820312 -8.980469 5.324219 -10.144531 C 3.824219 -11.144531 2.910156 -11.726562 2.578125 -11.726562 C 2.246094 -11.726562 2.078125 -11.308594 2.078125 -10.3125 C 2.078125 -8.316406 2.910156 -6.402344 4.742188 -4.40625 C 6.488281 -2.410156 8.566406 -0.996094 11.0625 -0.332031 Z M 11.0625 -0.332031 "/></g></g></g><g fill="#f24444" fill-opacity="1"><g transform="translate(226.032769, 78.607119)"><g><path d="M 32.515625 -54.722656 C 34.679688 -57.714844 35.59375 -60.542969 35.261719 -63.203125 C 34.929688 -65.699219 33.847656 -66.945312 32.183594 -66.945312 L 32.019531 -66.945312 C 31.351562 -66.945312 30.6875 -66.78125 29.9375 -66.445312 C 29.105469 -66.113281 28.273438 -65.617188 27.445312 -64.949219 C 26.613281 -64.367188 25.613281 -63.535156 24.53125 -62.539062 C 23.453125 -61.457031 22.371094 -60.292969 21.207031 -58.960938 C 18.878906 -56.46875 16.632812 -53.640625 14.304688 -50.480469 C 11.890625 -47.320312 9.894531 -44.242188 8.316406 -41.332031 C 7.652344 -40.167969 7.070312 -39.085938 6.570312 -38.253906 L 5.074219 -35.761719 L 1.664062 -35.761719 C -0.5 -35.84375 -1.582031 -35.261719 -1.664062 -34.011719 L -1.664062 -33.679688 C -1.664062 -32.515625 -1.246094 -31.683594 -0.25 -31.019531 C -0.0820312 -30.851562 0.414062 -30.769531 1.164062 -30.769531 C 1.828125 -30.769531 2.328125 -30.6875 2.828125 -30.6875 C 2.828125 -30.1875 2.496094 -29.441406 1.996094 -28.273438 C 1.414062 -27.109375 0.832031 -25.699219 0.25 -24.199219 C -0.167969 -23.203125 -0.5 -22.039062 -0.75 -20.875 C -1.082031 -19.542969 -1.246094 -18.296875 -1.332031 -16.964844 C -1.664062 -14.386719 -1.746094 -11.976562 -1.582031 -9.730469 C -1.496094 -7.402344 -1.164062 -5.90625 -0.582031 -5.238281 C 0.414062 -3.660156 1.914062 -2.910156 3.824219 -2.992188 L 4.492188 -2.992188 C 6.652344 -3.160156 9.148438 -4.074219 11.808594 -5.570312 C 13.640625 -6.570312 15.632812 -7.734375 17.964844 -9.148438 C 20.207031 -10.476562 23.785156 -12.808594 28.691406 -16.132812 C 31.933594 -18.296875 34.929688 -19.960938 37.589844 -21.289062 C 40.25 -22.621094 42.082031 -23.535156 43.160156 -24.199219 C 43.410156 -24.285156 43.492188 -24.449219 43.492188 -24.617188 L 43.492188 -24.699219 C 43.410156 -24.867188 43.160156 -24.949219 42.828125 -25.03125 C 41.414062 -25.113281 39.085938 -24.699219 35.761719 -23.703125 C 32.433594 -22.703125 27.859375 -20.542969 22.121094 -17.214844 C 19.542969 -15.71875 17.382812 -14.554688 15.550781 -13.554688 C 13.722656 -12.558594 12.140625 -11.726562 10.976562 -11.144531 C 8.066406 -9.730469 6.402344 -9.230469 5.90625 -9.5625 C 5.40625 -9.894531 4.988281 -10.476562 4.65625 -11.308594 C 4.40625 -11.808594 4.40625 -12.972656 4.65625 -14.804688 C 4.824219 -16.632812 5.238281 -18.546875 5.820312 -20.542969 C 6.070312 -21.621094 6.402344 -22.703125 6.734375 -23.785156 C 7.070312 -24.78125 7.484375 -25.699219 7.902344 -26.527344 C 8.816406 -28.359375 9.480469 -29.773438 9.980469 -30.769531 C 11.476562 -31.019531 12.972656 -31.269531 14.636719 -31.433594 C 16.132812 -31.601562 17.628906 -31.851562 19.042969 -32.101562 C 21.371094 -32.433594 23.285156 -32.765625 24.699219 -33.183594 C 26.03125 -33.515625 26.777344 -33.929688 26.777344 -34.347656 C 26.945312 -34.84375 26.113281 -35.261719 24.449219 -35.425781 C 22.703125 -35.59375 20.875 -35.675781 18.960938 -35.675781 C 17.796875 -35.761719 16.464844 -35.761719 15.136719 -35.761719 L 11.976562 -35.761719 C 11.976562 -36.175781 12.472656 -36.839844 13.554688 -37.671875 C 14.636719 -38.503906 16.214844 -39.667969 18.378906 -41.082031 C 19.710938 -41.914062 21.207031 -43.160156 23.035156 -44.742188 C 24.867188 -46.238281 26.527344 -47.902344 28.191406 -49.566406 C 29.023438 -50.398438 29.855469 -51.3125 30.605469 -52.226562 C 31.351562 -53.058594 32.019531 -53.890625 32.515625 -54.722656 Z M 27.359375 -59.628906 C 28.027344 -60.210938 28.609375 -60.707031 29.191406 -61.125 C 29.605469 -61.457031 29.9375 -61.625 30.1875 -61.625 L 30.269531 -61.625 C 30.269531 -61.625 30.355469 -61.539062 30.355469 -61.539062 L 30.355469 -61.457031 C 30.355469 -61.375 30.4375 -61.289062 30.4375 -61.289062 C 30.4375 -60.625 29.855469 -59.542969 28.773438 -57.964844 C 27.527344 -56.136719 25.863281 -54.140625 23.785156 -51.808594 C 21.953125 -49.816406 20.207031 -48.152344 18.378906 -46.65625 C 17.046875 -45.488281 16.132812 -44.992188 15.800781 -44.992188 C 15.632812 -44.992188 15.632812 -45.074219 15.632812 -45.242188 C 15.632812 -45.488281 16.214844 -46.488281 17.546875 -48.234375 C 18.878906 -49.898438 20.292969 -51.644531 21.871094 -53.558594 C 22.871094 -54.722656 23.949219 -55.886719 24.949219 -57.050781 C 25.945312 -58.128906 26.695312 -58.960938 27.359375 -59.628906 Z M 27.359375 -59.628906 "/></g></g></g><g fill="#f24444" fill-opacity="1"><g transform="translate(266.943534, 78.607119)"><g><path d="M 35.011719 -68.609375 C 34.597656 -68.859375 34.179688 -69.023438 33.847656 -69.191406 C 33.515625 -69.273438 33.183594 -69.359375 32.847656 -69.359375 L 32.515625 -69.359375 C 31.683594 -69.191406 30.769531 -68.859375 29.773438 -68.359375 C 28.691406 -67.777344 27.445312 -66.945312 26.03125 -65.949219 C 23.035156 -63.703125 20.042969 -60.460938 16.882812 -56.136719 C 13.722656 -51.808594 10.726562 -46.988281 7.902344 -41.664062 C 6.320312 -38.835938 4.824219 -35.925781 3.492188 -32.933594 C 2.078125 -29.855469 0.832031 -26.863281 -0.25 -23.867188 C -2.078125 -19.210938 -3.492188 -14.804688 -4.574219 -10.5625 C -5.65625 -6.238281 -6.238281 -2.410156 -6.238281 0.914062 C -6.320312 1.496094 -6.320312 1.996094 -6.320312 2.496094 C -6.320312 3.742188 -6.320312 4.574219 -6.152344 4.988281 C -6.070312 5.65625 -5.820312 5.90625 -5.324219 5.90625 L -5.238281 5.90625 C -4.65625 5.90625 -3.742188 5.074219 -2.578125 3.574219 C -1.414062 2.078125 0.832031 -1.082031 3.992188 -5.90625 C 4.824219 -7.152344 5.738281 -8.484375 6.734375 -9.894531 L 9.894531 -13.886719 C 11.808594 -16.300781 13.640625 -18.378906 15.386719 -20.207031 C 17.132812 -21.953125 18.296875 -22.871094 18.792969 -22.953125 C 19.460938 -22.953125 19.875 -22.785156 19.875 -22.289062 C 19.875 -21.789062 19.460938 -19.960938 18.792969 -16.882812 C 17.796875 -12.472656 17.878906 -9.3125 19.042969 -7.316406 C 20.125 -5.324219 22.289062 -4.492188 25.613281 -4.824219 C 28.941406 -4.988281 32.933594 -6.570312 37.671875 -9.480469 C 42.328125 -12.308594 47.734375 -16.300781 53.722656 -21.621094 C 55.886719 -23.453125 56.964844 -24.617188 56.964844 -25.03125 C 56.964844 -25.199219 56.800781 -25.199219 56.46875 -25.199219 C 55.304688 -24.949219 51.976562 -23.285156 46.65625 -20.207031 C 45.988281 -19.875 44.660156 -18.960938 42.578125 -17.628906 C 40.417969 -16.300781 38.171875 -14.96875 35.675781 -13.640625 C 32.601562 -11.976562 29.773438 -10.726562 27.109375 -9.894531 C 24.367188 -8.980469 22.871094 -9.398438 22.535156 -11.226562 C 22.371094 -11.726562 22.453125 -12.640625 22.621094 -13.886719 C 22.703125 -15.050781 22.953125 -16.300781 23.285156 -17.628906 C 24.285156 -21.371094 24.53125 -24.117188 24.035156 -25.945312 C 23.535156 -27.609375 22.203125 -28.441406 20.207031 -28.273438 C 18.878906 -28.109375 17.214844 -27.277344 15.21875 -25.699219 C 13.222656 -24.035156 10.726562 -21.457031 7.734375 -18.046875 C 4.824219 -14.71875 3.328125 -13.304688 3.160156 -13.972656 C 2.992188 -14.46875 4.074219 -17.546875 6.402344 -23.035156 C 6.734375 -23.867188 6.984375 -24.53125 7.316406 -25.199219 C 7.566406 -25.863281 7.816406 -26.445312 8.148438 -26.945312 C 8.816406 -28.441406 9.5625 -29.605469 10.394531 -30.355469 C 11.144531 -31.101562 12.390625 -32.101562 14.222656 -33.347656 C 16.632812 -35.011719 19.210938 -37.257812 21.953125 -40.085938 C 24.617188 -42.910156 27.109375 -45.824219 29.355469 -48.816406 C 30.519531 -50.398438 31.519531 -51.976562 32.433594 -53.558594 C 33.347656 -55.054688 34.097656 -56.382812 34.597656 -57.714844 C 35.84375 -60.875 36.507812 -63.285156 36.589844 -64.867188 C 36.589844 -66.445312 36.09375 -67.695312 35.011719 -68.609375 Z M 30.023438 -64.367188 C 30.519531 -64.699219 30.851562 -65.035156 31.1875 -65.199219 C 31.519531 -65.367188 31.769531 -65.449219 31.933594 -65.449219 L 32.019531 -65.449219 C 32.183594 -65.449219 32.265625 -65.367188 32.433594 -65.28125 C 32.515625 -65.117188 32.601562 -64.949219 32.765625 -64.699219 C 32.847656 -64.367188 32.933594 -64.117188 32.933594 -63.785156 C 32.933594 -63.285156 32.847656 -62.789062 32.683594 -62.207031 C 32.351562 -61.125 31.851562 -59.878906 31.1875 -58.378906 C 29.855469 -55.71875 27.941406 -52.640625 25.53125 -49.316406 C 23.035156 -45.988281 20.542969 -43.078125 17.964844 -40.582031 C 14.804688 -37.507812 12.890625 -36.007812 12.308594 -36.007812 C 12.140625 -36.007812 12.140625 -36.007812 12.140625 -36.09375 L 12.140625 -36.257812 C 12.140625 -37.089844 13.390625 -40 16.050781 -45.15625 C 18.210938 -49.316406 20.707031 -53.308594 23.367188 -57.050781 C 26.03125 -60.707031 28.191406 -63.203125 30.023438 -64.367188 Z M 30.023438 -64.367188 "/></g></g></g><g fill="#f24444" fill-opacity="1"><g transform="translate(321.657525, 78.607119)"><g><path d="M 18.296875 -27.027344 C 19.542969 -28.609375 19.875 -30.023438 19.210938 -31.351562 C 18.546875 -32.515625 17.214844 -33.265625 15.386719 -33.429688 L 13.972656 -33.429688 C 13.472656 -33.347656 12.972656 -33.265625 12.472656 -33.183594 C 9.980469 -32.601562 7.484375 -31.433594 5.15625 -29.605469 C 2.746094 -27.777344 0.832031 -25.699219 -0.582031 -23.535156 C -1.414062 -22.371094 -1.996094 -21.207031 -2.328125 -20.042969 C -2.660156 -19.042969 -2.828125 -18.210938 -2.828125 -17.382812 L -2.828125 -16.800781 C -2.660156 -15.386719 -2.164062 -14.054688 -1.164062 -12.890625 C -0.332031 -11.644531 0.832031 -10.644531 2.328125 -9.980469 C 3.910156 -9.148438 6.238281 -8.648438 9.230469 -8.484375 L 10.230469 -8.484375 C 12.890625 -8.484375 15.882812 -8.898438 19.042969 -9.8125 C 20.707031 -10.3125 22.535156 -10.894531 24.449219 -11.726562 C 26.28125 -12.558594 28.191406 -13.390625 30.023438 -14.386719 C 33.347656 -16.050781 36.257812 -17.878906 38.753906 -19.792969 C 41.25 -21.621094 42.496094 -22.953125 42.578125 -23.867188 L 42.578125 -24.035156 C 42.578125 -24.199219 42.496094 -24.449219 42.496094 -24.617188 C 42.414062 -24.78125 42.328125 -24.949219 42.328125 -24.949219 C 42.164062 -24.949219 40.832031 -24.449219 38.339844 -23.453125 C 35.761719 -22.453125 32.765625 -21.207031 29.355469 -19.625 C 22.289062 -16.300781 16.800781 -14.386719 12.808594 -14.054688 C 8.816406 -13.640625 5.570312 -14.054688 3.160156 -15.386719 C 2.164062 -16.050781 1.664062 -16.882812 1.582031 -17.878906 C 1.414062 -18.792969 1.746094 -19.960938 2.578125 -21.371094 C 2.910156 -22.039062 3.410156 -22.535156 4.074219 -22.871094 C 4.65625 -23.121094 5.65625 -23.285156 7.070312 -23.367188 C 9.5625 -23.535156 11.890625 -23.949219 14.054688 -24.617188 C 16.132812 -25.28125 17.546875 -26.03125 18.296875 -27.027344 Z M 10.726562 -28.773438 C 11.644531 -29.191406 12.390625 -29.441406 13.054688 -29.523438 C 13.554688 -29.523438 13.886719 -29.605469 14.222656 -29.605469 L 14.46875 -29.605469 C 14.71875 -29.523438 14.886719 -29.441406 14.886719 -29.273438 C 14.886719 -29.105469 14.804688 -28.941406 14.636719 -28.691406 C 14.136719 -28.109375 13.722656 -27.691406 13.222656 -27.445312 C 11.726562 -26.695312 10.476562 -26.28125 9.648438 -26.195312 C 8.898438 -26.113281 8.398438 -26.113281 8.066406 -26.113281 L 7.816406 -26.113281 C 7.566406 -26.113281 7.484375 -26.195312 7.484375 -26.363281 C 7.484375 -26.527344 7.652344 -26.695312 8.066406 -27.027344 C 8.730469 -27.609375 9.648438 -28.191406 10.726562 -28.773438 Z M 10.726562 -28.773438 "/></g></g></g><g clip-path="url(#id1)"><path fill="#545454" d="M 160.875 21.648438 L 160.875 17.054688 L 155.664062 17.054688 L 155.664062 12.464844 L 134.816406 12.464844 L 134.816406 17.054688 L 129.601562 17.054688 L 129.601562 26.234375 L 124.390625 26.234375 L 124.390625 17.054688 L 119.171875 17.054688 L 119.171875 12.464844 L 98.320312 12.464844 L 98.320312 17.054688 L 93.109375 17.054688 L 93.109375 21.648438 L 87.898438 21.648438 L 87.898438 44.601562 L 93.109375 44.601562 L 93.109375 53.785156 L 98.320312 53.785156 L 98.320312 58.375 L 103.535156 58.375 L 103.53125 58.375 L 103.53125 62.96875 L 108.75 62.96875 L 108.75 67.558594 L 113.960938 67.558594 L 113.960938 72.152344 L 119.171875 72.152344 L 119.171875 76.742188 L 124.390625 76.742188 L 124.390625 81.332031 L 129.601562 81.332031 L 129.601562 76.742188 L 134.816406 76.742188 L 134.816406 72.152344 L 140.027344 72.152344 L 140.027344 67.558594 L 145.238281 67.558594 L 145.238281 62.96875 L 150.453125 62.96875 L 150.453125 58.375 L 155.664062 58.375 L 155.664062 53.785156 L 160.875 53.785156 L 160.875 44.601562 L 166.089844 44.601562 L 166.089844 21.648438 L 160.875 21.648438 " fill-opacity="1" fill-rule="nonzero"/></g><path fill="#545454" d="M 113.960938 26.234375 L 113.960938 21.648438 L 98.320312 21.648438 L 98.320312 40.011719 L 113.960938 40.011719 L 113.960938 35.421875 L 119.171875 35.421875 L 119.171875 26.234375 L 113.960938 26.234375 " fill-opacity="1" fill-rule="nonzero"/><g clip-path="url(#id2)"><path fill="#545454" d="M 160.875 21.648438 L 160.875 17.054688 L 155.664062 17.054688 L 155.664062 12.464844 L 150.453125 12.464844 L 150.453125 21.648438 L 155.664062 21.648438 L 155.664062 40.011719 L 150.453125 40.011719 L 150.453125 49.195312 L 145.238281 49.195312 L 145.238281 58.375 L 134.816406 58.375 L 134.816406 62.96875 L 129.601562 62.96875 L 129.601562 67.558594 L 113.960938 67.558594 L 113.960938 72.152344 L 119.171875 72.152344 L 119.171875 76.742188 L 124.390625 76.742188 L 124.390625 81.332031 L 129.601562 81.332031 L 129.601562 76.742188 L 134.816406 76.742188 L 134.816406 72.152344 L 140.027344 72.152344 L 140.027344 67.558594 L 145.238281 67.558594 L 145.238281 62.96875 L 150.453125 62.96875 L 150.453125 58.375 L 155.664062 58.375 L 155.664062 53.785156 L 160.875 53.785156 L 160.875 44.601562 L 166.089844 44.601562 L 166.089844 21.648438 L 160.875 21.648438 " fill-opacity="1" fill-rule="nonzero"/></g><g clip-path="url(#id3)"><path fill="#f24444" d="M 154.839844 21.648438 L 154.839844 17.054688 L 149.628906 17.054688 L 149.628906 12.464844 L 128.78125 12.464844 L 128.78125 17.054688 L 123.566406 17.054688 L 123.566406 26.234375 L 118.355469 26.234375 L 118.355469 17.054688 L 113.136719 17.054688 L 113.136719 12.464844 L 92.285156 12.464844 L 92.285156 17.054688 L 87.074219 17.054688 L 87.074219 21.648438 L 81.863281 21.648438 L 81.863281 44.601562 L 87.074219 44.601562 L 87.074219 53.785156 L 92.285156 53.785156 L 92.285156 58.375 L 97.5 58.375 L 97.496094 58.375 L 97.496094 62.96875 L 102.710938 62.96875 L 102.710938 67.558594 L 107.925781 67.558594 L 107.925781 72.152344 L 113.136719 72.152344 L 113.136719 76.742188 L 118.355469 76.742188 L 118.355469 81.332031 L 123.566406 81.332031 L 123.566406 76.742188 L 128.78125 76.742188 L 128.78125 72.152344 L 133.992188 72.152344 L 133.992188 67.558594 L 139.203125 67.558594 L 139.203125 62.96875 L 144.414062 62.96875 L 144.414062 58.375 L 149.628906 58.375 L 149.628906 53.785156 L 154.839844 53.785156 L 154.839844 44.601562 L 160.054688 44.601562 L 160.054688 21.648438 L 154.839844 21.648438 " fill-opacity="1" fill-rule="nonzero"/></g><path fill="#ffeeb7" d="M 107.925781 26.234375 L 107.925781 21.648438 L 92.285156 21.648438 L 92.285156 40.011719 L 107.925781 40.011719 L 107.925781 35.421875 L 113.136719 35.421875 L 113.136719 26.234375 L 107.925781 26.234375 " fill-opacity="1" fill-rule="nonzero"/><g clip-path="url(#id4)"><path fill="#bf4136" d="M 154.839844 21.648438 L 154.839844 17.054688 L 149.628906 17.054688 L 149.628906 12.464844 L 144.417969 12.464844 L 144.417969 21.648438 L 149.628906 21.648438 L 149.628906 40.011719 L 144.417969 40.011719 L 144.417969 49.195312 L 139.203125 49.195312 L 139.203125 58.375 L 128.78125 58.375 L 128.78125 62.96875 L 123.566406 62.96875 L 123.566406 67.558594 L 107.925781 67.558594 L 107.925781 72.152344 L 113.136719 72.152344 L 113.136719 76.742188 L 118.355469 76.742188 L 118.355469 81.332031 L 123.566406 81.332031 L 123.566406 76.742188 L 128.78125 76.742188 L 128.78125 72.152344 L 133.992188 72.152344 L 133.992188 67.558594 L 139.203125 67.558594 L 139.203125 62.96875 L 144.414062 62.96875 L 144.414062 58.375 L 149.628906 58.375 L 149.628906 53.785156 L 154.839844 53.785156 L 154.839844 44.601562 L 160.054688 44.601562 L 160.054688 21.648438 L 154.839844 21.648438 " fill-opacity="1" fill-rule="nonzero"/></g></svg>