<?xml version="1.0" encoding="utf-8"?>
<!-- Generator: Adobe Illustrator 25.2.1, SVG Export Plug-In . SVG Version: 6.00 Build 0)  -->
<svg version="1.1" id="Camada_1" xmlns="http://www.w3.org/2000/svg" xmlns:xlink="http://www.w3.org/1999/xlink" x="0px" y="0px"
	 viewBox="0 0 1440 320" style="enable-background:new 0 0 1440 320;" xml:space="preserve">
<style type="text/css">
	.st0{fill:#BF4136;}
</style>
<path class="st0" d="M0,0l34.3,21.6C68.6,43.5,137,86.4,206,86.6c68.3-0.2,137-43.1,205-40.2c69,2.9,138,52.7,206,61.9
	c68.7,9.4,137-21.9,206-31c68.4-9.4,137,3.3,206,3.1c68.1,0.2,137-12.6,205-24.8c68.9-12.2,137-24.9,172-30.9l34-6.2V0h-34.3
	C1371.4,0,1303,0,1234,0c-68.3,0-137,0-205,0c-69,0-138,0-206,0c-68.7,0-137,0-206,0c-68.4,0-137,0-206,0c-68.1,0-137,0-205,0
	C137.1,0,69,0,34,0H0z"/>
</svg>
